<?xml version="1.0" standalone="no"?>
<!DOCTYPE svg PUBLIC "-//W3C//DTD SVG 20010904//EN"
 "http://www.w3.org/TR/2001/REC-SVG-20010904/DTD/svg10.dtd">
<svg version="1.0" xmlns="http://www.w3.org/2000/svg"
 width="3840.000000pt" height="1120.000000pt" viewBox="0 0 3840.000000 1120.000000"
 preserveAspectRatio="xMidYMid meet">

<g transform="translate(0.000000,1120.000000) scale(0.100000,-0.100000)"
fill="#000000" stroke="none">
<path d="M4360 10244 c-530 -46 -1066 -244 -1560 -575 -397 -267 -668 -537
-927 -924 -161 -241 -337 -594 -427 -856 -71 -209 -149 -570 -178 -829 -16
-148 -16 -626 0 -790 37 -368 140 -784 284 -1140 71 -175 236 -512 290 -590
118 -171 179 -263 232 -348 59 -94 112 -147 137 -137 16 6 26 21 69 100 30 55
30 55 12 92 -9 21 -51 83 -93 138 -90 119 -155 214 -187 274 -13 24 -71 123
-129 220 -114 189 -154 270 -239 481 -138 339 -249 801 -285 1183 -15 169 -7
626 15 762 62 381 116 566 254 860 55 116 90 180 221 406 85 147 120 175 65
52 -133 -300 -259 -652 -293 -823 -54 -273 -70 -683 -37 -935 22 -162 51 -317
78 -415 50 -183 165 -506 190 -535 4 -5 8 -16 8 -24 0 -8 47 -109 104 -225
157 -317 311 -520 609 -805 212 -201 222 -209 381 -311 178 -114 322 -187 517
-264 290 -113 554 -179 794 -198 176 -13 517 -4 655 17 201 31 461 104 700
196 113 43 404 191 510 259 187 120 504 402 662 590 271 321 471 686 617 1128
79 238 128 466 151 691 13 133 13 454 -1 601 -17 189 -95 497 -190 748 -103
275 -298 610 -502 862 -185 230 -477 477 -760 644 -379 223 -805 370 -1172
406 -117 11 -500 21 -575 14z m530 -293 c592 -102 1081 -352 1519 -776 232
-225 492 -598 596 -857 46 -115 141 -381 167 -468 25 -86 64 -354 79 -543 21
-270 -5 -620 -61 -823 -34 -124 -117 -341 -176 -458 -66 -129 -204 -345 -277
-431 -28 -33 -53 -63 -57 -67 -3 -5 -6 17 -7 47 -2 98 -75 221 -168 285 -57
39 -154 64 -225 57 -122 -11 -237 -82 -284 -175 l-23 -45 -6 55 c-4 30 -14
153 -22 274 -8 120 -17 244 -20 274 -20 221 -37 386 -45 436 -6 32 -10 63 -10
69 0 5 19 -9 43 -31 119 -115 338 -264 514 -350 102 -50 149 -82 127 -85 -5
-1 -63 -4 -129 -8 -115 -6 -120 -7 -123 -29 l-4 -23 370 3 c295 2 372 6 385
17 10 7 17 17 17 22 0 5 -78 9 -172 9 -95 0 -183 3 -195 6 -17 5 -26 20 -39
63 -21 74 -73 175 -187 368 -52 87 -138 235 -192 328 -53 94 -141 244 -195
335 -53 91 -133 228 -176 306 l-79 140 0 383 0 383 -40 -6 c-54 -9 -143 -46
-150 -63 -2 -8 0 -24 6 -35 6 -11 9 -22 6 -24 -6 -6 -89 124 -167 261 -35 61
-98 169 -140 240 -42 72 -99 170 -126 220 -70 128 -203 262 -159 160 8 -19 22
-50 30 -69 17 -39 138 -249 283 -489 95 -157 119 -204 110 -212 -2 -2 -62 -33
-133 -68 -72 -36 -168 -88 -215 -117 -80 -48 -86 -50 -98 -33 -7 10 -54 88
-104 173 -50 85 -127 218 -173 295 -45 77 -95 164 -109 193 -15 29 -33 55 -42
59 -18 7 -44 -14 -44 -36 0 -9 40 -84 89 -166 205 -345 330 -562 401 -695 60
-112 164 -286 186 -309 2 -2 21 8 41 22 21 14 50 30 64 36 25 9 29 6 70 -56
l43 -66 -27 -21 c-14 -11 -57 -36 -94 -54 -37 -18 -75 -37 -83 -42 -31 -17 -4
-137 57 -250 44 -82 120 -196 188 -280 87 -109 87 -109 70 -284 -8 -83 -19
-227 -25 -321 -6 -93 -19 -255 -30 -360 -31 -308 -48 -502 -50 -560 -1 -30 -1
-30 -14 8 -21 58 -54 99 -115 145 -76 56 -138 77 -232 76 -63 -1 -87 -6 -142
-32 -84 -39 -149 -104 -178 -180 -29 -74 -33 -246 -7 -304 26 -59 103 -134
195 -190 l85 -52 -73 -65 c-131 -119 -203 -172 -297 -218 -54 -26 -109 -46
-130 -47 -33 -1 -36 2 -44 34 -4 19 -11 148 -14 285 -7 282 1 433 47 830 73
640 74 644 144 657 385 72 555 113 678 164 65 27 87 41 87 54 0 5 -24 20 -52
35 l-53 26 -322 -50 c-177 -28 -333 -51 -347 -51 -32 0 -32 -5 -1 190 58 374
85 627 85 812 0 99 -4 187 -10 197 -5 10 -25 30 -44 45 -33 24 -39 26 -75 16
-78 -21 -122 -104 -202 -383 -46 -160 -116 -478 -160 -732 -16 -93 -33 -181
-37 -194 -6 -20 -21 -27 -94 -45 -65 -16 -93 -19 -107 -11 -21 11 -72 78 -84
108 -10 26 -114 183 -170 257 -94 122 -230 272 -302 330 -16 14 -76 77 -133
140 -107 119 -177 224 -240 357 l-36 78 -4 163 c-4 155 -3 167 23 250 34 109
109 262 171 350 58 81 181 205 248 249 84 56 150 76 256 78 134 2 135 2 121
18 -30 37 -184 60 -316 46 -199 -21 -318 -68 -466 -187 -97 -78 -155 -147
-223 -267 -151 -267 -180 -642 -65 -869 58 -116 125 -193 444 -521 60 -62 172
-192 217 -250 59 -78 172 -254 203 -315 29 -57 33 -52 -88 -108 -100 -47 -150
-79 -141 -93 17 -28 74 -43 184 -48 l115 -6 0 -100 c0 -95 -2 -104 -37 -178
-54 -114 -131 -219 -217 -298 -60 -56 -103 -83 -206 -134 -160 -80 -220 -95
-410 -102 -149 -5 -392 10 -408 26 -4 4 -9 34 -10 67 l-3 59 -49 8 c-28 4
-102 5 -165 2 -111 -6 -116 -5 -137 17 -28 30 -173 323 -207 417 -65 180 -129
525 -143 768 -13 224 81 695 192 958 147 351 282 553 544 816 86 85 183 176
216 201 504 379 993 545 1672 566 176 6 215 10 228 23 20 20 57 180 44 193
-14 15 -455 8 -570 -9 -397 -59 -747 -194 -1134 -438 -209 -132 -492 -387
-662 -597 -170 -211 -359 -567 -456 -860 -40 -121 -64 -213 -106 -407 -21
-100 -42 -187 -46 -192 -27 -45 -41 92 -26 253 35 373 195 849 379 1130 181
275 341 470 511 619 389 341 695 502 1191 627 259 66 396 80 735 76 240 -3
311 -7 415 -25z m912 -1493 c2 -90 2 -167 0 -171 -6 -13 -39 36 -70 104 -67
148 -69 168 -14 203 20 14 47 25 59 25 21 1 21 -3 25 -161z m-260 105 c23 -26
88 -157 88 -177 0 -15 -141 -114 -237 -166 -21 -11 -49 -29 -63 -40 -14 -11
-42 -26 -62 -35 -36 -15 -38 -14 -64 13 -30 31 -114 156 -114 169 1 14 78 62
234 145 83 45 160 87 171 94 27 17 29 17 47 -3z m122 -269 c14 -36 5 -55 -41
-87 -25 -17 -78 -57 -117 -87 -77 -60 -165 -120 -177 -120 -4 0 -16 15 -28 33
-11 17 -28 42 -37 54 -16 22 -15 23 27 42 30 12 48 15 56 9 7 -6 11 -13 9 -17
-3 -4 -1 -13 4 -21 10 -16 13 -11 24 41 4 19 22 35 68 59 34 18 85 50 112 72
54 40 90 48 100 22z m139 -124 c4 -30 6 -102 5 -159 l-3 -104 -37 71 c-25 46
-41 93 -47 137 -11 76 -7 93 23 105 40 17 50 8 59 -50z m-152 -97 c3 -133 -3
-408 -9 -417 -3 -5 0 -6 6 -2 14 9 30 91 38 204 4 50 10 92 14 92 12 0 65 -71
79 -107 10 -24 10 -36 1 -54 -23 -42 -103 -139 -120 -144 -15 -5 -40 -61 -46
-105 -8 -53 -12 -200 -5 -200 20 0 30 32 41 130 14 126 22 146 94 233 71 85
87 89 65 17 -5 -19 -12 -64 -15 -100 -4 -59 -9 -73 -61 -150 -31 -47 -66 -96
-79 -110 -26 -29 -54 -108 -54 -150 0 -17 -4 -30 -9 -30 -12 0 -141 196 -208
315 -92 163 -93 196 -8 251 30 19 63 38 73 41 14 6 96 64 112 80 3 3 -10 2
-27 -2 -27 -5 -33 -3 -33 10 0 8 -11 38 -25 65 -14 27 -25 55 -25 63 0 18 43
57 110 101 81 53 90 50 91 -31z m1663 -35 c13 -20 35 -92 82 -263 52 -192 64
-886 20 -1137 -63 -350 -189 -678 -386 -998 -311 -507 -766 -894 -1323 -1125
-121 -49 -372 -125 -426 -128 -75 -4 -56 18 46 52 289 98 606 259 806 410 539
407 811 763 1041 1362 111 290 165 579 173 929 7 272 -10 576 -42 760 -14 77
-25 145 -25 150 0 18 19 11 34 -12z m-2010 -37 c7 -11 -14 -20 -31 -13 -7 2
-13 8 -13 13 0 12 37 12 44 0z m563 -288 c46 -74 73 -123 73 -134 0 -6 38 -72
84 -147 46 -76 153 -258 239 -407 85 -148 178 -308 206 -355 69 -112 146 -268
137 -277 -10 -10 -69 21 -260 136 -265 159 -476 328 -495 395 -4 17 -9 102
-10 188 -1 87 -7 172 -13 189 -7 22 -9 85 -4 203 4 94 7 190 6 214 0 23 1 42
3 42 2 0 17 -21 34 -47z m-63 -482 l2 -281 -83 82 c-46 46 -86 90 -88 99 -8
23 23 166 43 204 25 46 116 182 121 179 1 -1 4 -129 5 -283z m-76 -275 c80
-83 91 -98 96 -137 10 -89 46 -539 56 -709 6 -96 17 -231 25 -300 8 -69 19
-175 25 -237 14 -150 34 -207 88 -260 57 -54 178 -114 235 -116 23 -1 43 3 44
8 2 6 -37 26 -86 45 -172 70 -219 134 -228 316 l-5 109 63 66 c72 74 118 101
201 118 63 13 143 4 203 -24 77 -37 167 -164 181 -256 4 -24 10 -51 15 -60 11
-21 -64 -112 -198 -240 -298 -285 -736 -531 -1149 -644 -477 -131 -920 -152
-1370 -66 -126 25 -404 109 -514 156 -249 106 -493 262 -710 453 -137 121
-380 357 -380 370 0 14 78 7 160 -14 76 -20 407 -29 545 -16 480 47 918 349
1018 702 9 30 19 109 22 175 4 73 11 123 18 127 16 10 115 10 121 0 3 -5 -4
-76 -14 -158 -99 -769 -127 -1174 -96 -1380 22 -146 39 -194 92 -253 81 -90
209 -129 379 -117 167 11 298 57 432 152 117 83 222 226 231 312 5 60 -8 72
-86 79 -56 5 -63 9 -123 65 -205 190 -213 205 -207 341 7 141 49 207 173 268
60 29 70 31 147 27 119 -6 195 -50 282 -164 l38 -49 -4 -85 c-11 -196 -123
-316 -307 -330 -83 -6 -72 -14 35 -26 54 -6 68 -3 115 20 70 35 140 104 174
172 36 71 49 168 75 539 12 165 24 310 27 323 5 21 10 22 93 22 103 0 150 8
150 25 0 19 -34 25 -139 25 l-94 0 6 73 c3 39 14 201 23 360 10 158 21 287 24
287 4 0 48 -42 98 -94z"/>
<path d="M5233 6322 c-78 -2 -103 -6 -103 -16 0 -21 31 -25 155 -19 74 4 119
10 125 18 14 16 -36 21 -177 17z"/>
<path d="M5942 6308 c3 -22 7 -23 128 -26 134 -2 171 7 136 33 -15 11 -50 15
-144 15 -122 0 -123 0 -120 -22z"/>
<path d="M5797 5933 c-13 -12 -7 -54 8 -59 15 -6 67 45 58 58 -5 10 -57 10
-66 1z m43 -17 c0 -2 -7 -9 -15 -16 -12 -10 -15 -10 -15 4 0 9 7 16 15 16 8 0
15 -2 15 -4z"/>
<path d="M5575 5920 c-3 -5 -1 -10 5 -10 6 0 8 -5 4 -11 -5 -9 28 8 55 28 2 2
-10 3 -27 3 -17 0 -34 -4 -37 -10z"/>
<path d="M5670 5920 c0 -6 -14 -17 -30 -24 -38 -16 -29 -28 11 -14 34 12 60
48 34 48 -8 0 -15 -5 -15 -10z"/>
<path d="M21389 9822 c-62 -29 -75 -51 -82 -141 -4 -44 -13 -93 -21 -108 -7
-16 -42 -140 -76 -278 -35 -137 -72 -277 -83 -310 -10 -33 -30 -103 -43 -155
-19 -81 -95 -348 -164 -579 -29 -96 -71 -201 -80 -201 -10 0 -21 33 -59 180
-17 63 -46 169 -66 235 -20 66 -49 165 -64 220 -16 55 -40 135 -55 177 -14 42
-26 84 -26 93 0 9 -14 58 -31 109 -17 50 -37 120 -45 156 -8 36 -28 106 -44
155 -15 50 -52 169 -82 265 l-53 175 -42 3 c-27 2 -59 -4 -87 -17 -55 -24 -53
-5 -45 -401 18 -805 21 -1249 10 -1500 -7 -177 -7 -268 0 -275 10 -10 126 -12
135 -2 3 3 0 169 -5 368 -13 436 -15 1453 -3 1475 16 29 30 -8 72 -187 39
-166 77 -305 140 -504 15 -49 49 -162 75 -250 26 -88 64 -214 85 -280 22 -66
62 -192 89 -280 36 -115 57 -167 75 -184 29 -27 38 -23 70 32 59 102 354 1102
432 1459 12 59 29 117 37 128 14 20 15 20 22 3 3 -10 9 -413 12 -896 l6 -879
25 -9 c14 -6 44 -9 66 -7 l41 3 3 1074 c2 950 0 1077 -13 1098 -9 13 -21 23
-28 23 -6 0 -24 6 -38 14 -23 12 -31 11 -60 -2z"/>
<path d="M25425 9810 c-35 -6 -75 -30 -75 -45 0 -5 12 -23 25 -38 l25 -28 207
3 208 3 1 -1038 c1 -878 3 -1040 15 -1048 12 -8 125 -13 131 -6 2 1 5 475 8
1052 l5 1050 211 -4 211 -3 22 31 22 31 -33 20 c-18 11 -40 21 -48 21 -43 5
-909 3 -935 -1z"/>
<path d="M13005 9804 c-11 -2 -45 -9 -75 -15 -78 -16 -81 -20 -75 -98 24 -322
55 -1331 55 -1775 l0 -309 133 5 c124 4 138 7 202 37 81 37 180 115 287 223
129 131 209 274 274 486 70 231 68 218 69 562 l0 315 -41 106 c-78 202 -153
307 -280 390 -36 23 -90 48 -122 56 -55 14 -385 27 -427 17z m297 -116 c13 -8
48 -23 78 -33 87 -28 124 -51 173 -105 54 -60 96 -133 138 -237 39 -99 53
-248 45 -476 -11 -285 -37 -409 -130 -603 -69 -144 -135 -240 -232 -338 -108
-108 -138 -129 -180 -128 -19 1 -51 -7 -72 -17 -82 -42 -79 -43 -86 61 -13
226 -37 1161 -36 1446 0 262 3 322 16 365 9 29 20 56 24 60 24 27 222 31 262
5z"/>
<path d="M16780 9798 c-59 -17 -76 -41 -95 -136 -9 -48 -28 -141 -42 -207 -13
-66 -37 -185 -53 -265 -16 -80 -38 -183 -49 -230 -12 -47 -30 -134 -41 -195
-12 -60 -27 -132 -34 -160 -8 -27 -21 -86 -29 -130 -9 -44 -43 -192 -76 -330
-32 -137 -67 -293 -76 -345 -14 -74 -23 -100 -42 -118 -13 -12 -29 -20 -34
-17 -5 4 -9 -1 -9 -9 0 -10 9 -16 23 -16 13 0 34 -11 47 -25 26 -28 67 -33 76
-10 4 8 15 15 25 15 24 0 44 43 23 48 -20 5 -17 38 6 70 11 16 24 58 30 102 6
41 30 157 52 257 36 159 44 182 63 187 16 4 367 8 526 6 24 0 27 -5 33 -47 7
-53 100 -494 117 -558 17 -63 48 -107 73 -103 13 2 20 9 18 20 -2 12 3 15 17
11 10 -2 21 -1 24 4 11 17 -45 293 -109 543 -8 30 -28 109 -44 175 -16 66 -37
149 -46 185 -26 103 -55 243 -50 247 2 3 -5 30 -15 61 -24 69 -54 198 -63 270
-4 30 -18 95 -31 145 -14 51 -31 140 -39 198 -8 59 -22 124 -30 145 -8 22 -19
68 -26 104 -18 95 -18 96 -46 108 -28 14 -27 14 -74 0z m44 -345 c20 -65 43
-152 52 -193 19 -98 88 -403 124 -555 34 -143 54 -244 49 -249 -10 -9 -478
-15 -483 -7 -7 10 28 227 49 311 8 30 30 132 49 225 19 94 42 202 50 240 8 39
22 117 30 175 23 154 26 170 35 170 4 0 24 -53 45 -117z"/>
<path d="M23655 9111 c-43 -5 -52 -10 -64 -36 -20 -41 -19 -117 2 -148 19 -29
70 -41 147 -35 l45 3 3 113 3 112 -43 -2 c-24 0 -65 -4 -93 -7z"/>
<path d="M29856 8663 c-59 -31 -159 -118 -218 -187 -54 -64 -70 -91 -99 -165
-20 -51 -20 -8 1 81 12 54 20 116 18 148 l-3 55 -57 14 c-32 8 -61 11 -65 7
-4 -4 -9 -232 -11 -505 -3 -557 -7 -531 65 -512 67 18 71 25 62 116 -4 44 -8
130 -8 191 -2 284 123 500 352 608 55 26 57 29 57 65 0 92 -30 119 -94 84z"/>
<path d="M15134 8659 c-95 -27 -202 -150 -224 -254 -11 -54 -10 -58 14 -96 31
-47 50 -49 65 -9 6 17 16 45 23 63 31 86 116 170 186 183 53 10 136 -19 164
-59 20 -28 23 -46 26 -158 l4 -127 -128 -4 c-146 -6 -203 -22 -295 -86 -70
-48 -105 -113 -114 -215 -14 -150 25 -246 117 -290 133 -63 232 -51 356 43 29
22 54 40 57 40 2 0 13 -20 23 -43 19 -44 72 -87 106 -87 19 0 18 -38 17 442 0
371 -1 379 -24 445 -44 127 -102 192 -187 212 -54 13 -143 13 -186 0z m237
-599 c16 -9 19 -22 19 -96 0 -106 -15 -142 -84 -197 -71 -56 -126 -78 -193
-78 -65 0 -96 17 -124 71 -56 104 30 277 148 300 59 12 212 11 234 0z"/>
<path d="M18863 8650 c-57 -25 -142 -106 -164 -155 -21 -45 -26 -164 -9 -196
6 -10 21 -19 35 -19 26 0 51 34 81 110 44 113 103 156 200 148 107 -9 136 -53
142 -215 4 -105 3 -113 -14 -114 -226 -7 -243 -10 -363 -67 -77 -37 -113 -77
-139 -156 -29 -86 -30 -212 -3 -272 26 -57 89 -107 171 -135 63 -21 74 -22
117 -11 46 12 189 98 214 128 18 22 28 17 35 -23 13 -69 48 -112 92 -113 l22
0 1 213 c0 116 0 312 0 435 l-1 223 -32 67 c-42 85 -101 147 -153 161 -65 18
-184 13 -232 -9z m283 -593 c11 -11 6 -161 -6 -207 -21 -77 -133 -150 -243
-158 -79 -6 -115 11 -139 65 -30 67 -27 127 10 200 38 75 66 92 166 103 83 10
202 8 212 -3z"/>
<path d="M22143 8655 c-59 -18 -133 -67 -182 -120 l-41 -45 0 -99 c0 -57 4
-103 10 -106 6 -4 25 -2 43 3 17 6 44 13 60 16 26 6 27 9 27 70 0 98 12 120
78 149 87 38 107 40 151 18 53 -27 88 -72 107 -137 15 -53 23 -198 11 -210 -3
-4 -32 -2 -64 4 -121 21 -251 -8 -361 -82 -121 -80 -177 -266 -118 -392 35
-76 124 -145 203 -157 80 -12 216 45 295 124 27 27 50 49 52 49 2 0 7 -28 10
-62 9 -79 31 -118 67 -118 28 0 59 27 59 52 0 9 -6 43 -14 75 -11 43 -16 154
-19 419 l-4 361 -29 53 c-33 61 -107 124 -162 140 -50 13 -128 12 -179 -5z
m246 -601 c23 -5 23 -7 19 -87 -3 -57 -11 -95 -25 -122 -24 -45 -94 -115 -141
-139 -35 -18 -146 -22 -187 -6 -69 26 -89 208 -32 283 36 48 77 69 152 78 58
7 165 3 214 -7z"/>
<path d="M23340 8658 c-102 -29 -278 -210 -317 -328 -25 -77 -30 -48 -8 55 17
82 20 201 4 211 -6 3 -33 12 -60 19 -45 12 -50 12 -59 -5 -6 -12 -10 -205 -10
-509 0 -468 1 -491 19 -500 20 -11 89 -4 109 12 7 5 10 18 7 28 -4 11 -6 101
-7 201 0 207 16 297 74 417 43 88 140 185 235 234 81 42 93 57 93 116 0 30 -5
43 -19 51 -11 5 -21 10 -23 9 -2 0 -19 -5 -38 -11z"/>
<path d="M24325 8658 c-49 -18 -129 -73 -159 -109 -38 -45 -67 -113 -73 -174
-4 -42 -1 -54 16 -72 23 -25 63 -29 105 -13 24 9 26 14 26 71 0 77 27 117 102
155 41 21 62 25 103 22 102 -9 152 -77 169 -233 11 -110 6 -130 -32 -121 -65
15 -203 18 -249 6 -65 -18 -155 -63 -196 -99 -44 -39 -84 -123 -99 -210 -10
-61 -10 -77 5 -124 36 -115 105 -169 240 -190 62 -9 73 -8 111 12 24 11 50 21
58 21 25 0 107 58 127 90 23 39 36 25 45 -50 4 -30 14 -63 23 -72 31 -34 82
-18 103 31 10 26 9 41 -9 100 -19 61 -21 94 -21 288 0 448 -29 577 -143 650
-36 23 -54 27 -132 30 -50 1 -103 -2 -120 -9z m280 -601 c15 -12 17 -24 13
-83 -6 -86 -21 -116 -98 -192 -80 -79 -115 -95 -196 -90 -138 9 -199 122 -135
251 28 57 76 96 139 113 65 18 253 18 277 1z"/>
<path d="M26794 8654 c-110 -34 -195 -128 -238 -264 -72 -227 -54 -469 51
-660 44 -81 65 -104 121 -131 56 -28 175 -54 180 -40 2 6 34 20 71 31 157 46
242 163 277 380 28 168 8 390 -43 499 -32 68 -103 146 -158 173 -54 28 -190
34 -261 12z m224 -148 c42 -22 79 -81 116 -186 52 -147 39 -292 -45 -488 -22
-52 -69 -106 -111 -128 -33 -17 -135 -18 -164 -1 -69 40 -134 125 -158 206
-21 73 -22 294 -1 375 17 63 73 172 104 200 50 45 191 57 259 22z"/>
<path d="M28655 8658 c-53 -19 -145 -88 -171 -128 -33 -50 -54 -175 -36 -214
9 -21 18 -26 44 -25 76 2 81 8 94 93 10 61 18 84 39 106 34 35 100 54 167 48
45 -5 57 -11 84 -42 44 -51 66 -126 62 -217 l-3 -74 -115 -1 c-171 -1 -266
-37 -353 -134 -72 -80 -92 -130 -92 -230 0 -94 11 -123 71 -190 40 -44 122
-80 182 -80 83 0 223 62 280 124 l41 44 10 -47 c5 -25 13 -63 16 -84 8 -47 23
-54 66 -29 40 22 59 65 41 90 -34 48 -36 70 -41 442 -5 327 -8 379 -23 406
-26 47 -124 132 -166 144 -47 13 -158 12 -197 -2z m248 -603 c73 -31 51 -190
-38 -278 -77 -75 -212 -111 -284 -74 -42 21 -65 73 -65 146 1 112 63 199 152
212 59 8 211 4 235 -6z"/>
<path d="M14599 8632 c-69 -44 -117 -90 -146 -141 -47 -81 -84 -131 -97 -131
-9 0 -15 28 -20 98 -6 94 -19 168 -30 179 -10 10 -58 -8 -82 -32 l-24 -24 -1
-298 c0 -164 -4 -377 -8 -473 -7 -139 -6 -178 4 -189 8 -8 36 -14 72 -15 l58
-1 7 225 c10 318 10 316 71 408 67 101 172 204 275 272 93 62 101 82 51 124
-39 34 -74 33 -130 -2z"/>
<path d="M17715 8641 c-3 -6 -17 -11 -30 -11 -14 0 -29 -8 -35 -20 -7 -13 -9
-182 -8 -507 l3 -488 40 -3 c21 -2 53 -1 71 2 l31 6 5 362 4 361 25 18 c13 10
50 42 81 72 69 66 111 87 170 87 58 0 70 -14 109 -126 l31 -89 -5 -255 c-3
-140 -10 -292 -17 -338 -7 -46 -9 -86 -6 -89 4 -4 33 -9 66 -11 l60 -4 0 423
c0 483 2 470 -88 550 -87 78 -132 85 -242 39 -89 -37 -133 -69 -150 -109 -7
-17 -16 -31 -21 -31 -9 0 -10 4 -32 105 -11 48 -18 61 -34 63 -12 2 -24 -2
-28 -7z"/>
<path d="M27479 8618 c-22 -40 -1 -134 90 -401 178 -524 192 -559 228 -594 19
-18 44 -33 57 -33 20 0 60 48 62 75 1 22 17 80 25 95 5 8 48 131 94 274 47
142 93 272 101 287 8 16 14 35 13 42 -3 19 12 68 33 103 10 18 21 55 25 84 5
44 3 55 -12 66 -20 15 -91 19 -99 6 -7 -11 -65 -206 -146 -488 -84 -289 -96
-322 -114 -303 -24 26 -85 214 -146 449 -9 36 -19 72 -22 80 -11 28 -36 105
-58 178 -18 58 -28 76 -51 87 -39 21 -66 19 -80 -7z"/>
<path d="M23624 8344 c7 -265 -4 -576 -23 -658 -8 -33 -6 -41 16 -66 33 -38
54 -41 93 -17 l32 20 -7 101 c-5 56 -10 115 -11 131 -4 31 14 437 20 471 2 10
7 71 11 136 8 134 9 131 -85 144 l-53 7 7 -269z"/>
<path d="M33927 7478 c-18 -32 -23 -53 -19 -83 12 -105 13 -1247 1 -1615 -8
-217 -14 -462 -14 -545 l0 -150 38 -9 c28 -7 45 -6 71 6 l33 16 -4 429 c-5
394 9 1383 24 1754 l6 157 -28 25 c-52 47 -65 57 -75 57 -5 0 -20 -19 -33 -42z"/>
<path d="M14938 7089 c-5 -1222 -4 -2011 4 -2015 5 -3 34 0 64 6 l56 12 -6
421 c-6 380 2 1052 20 1713 l7 241 -24 6 c-13 3 -45 9 -71 12 l-48 7 -2 -403z"/>
<path d="M21944 7292 c-164 -58 -245 -142 -329 -341 -48 -114 -71 -205 -99
-391 -36 -237 -48 -448 -37 -611 35 -485 143 -765 329 -856 54 -26 64 -28 192
-28 158 0 196 12 279 90 87 82 149 203 170 335 6 36 16 90 21 120 13 71 6 100
-31 136 -24 23 -33 26 -47 18 -17 -11 -61 -132 -61 -172 -1 -39 -42 -194 -64
-240 -24 -53 -66 -96 -121 -125 -34 -17 -58 -21 -136 -22 -126 0 -169 20 -247
117 -55 67 -57 74 -94 219 -53 207 -63 316 -56 604 6 245 14 316 61 523 32
143 64 233 111 318 77 138 162 189 299 182 61 -3 79 -8 109 -31 73 -55 118
-207 151 -507 12 -117 34 -190 55 -190 20 0 72 65 67 85 -2 11 -10 101 -16
200 -16 251 -16 253 -61 345 -46 96 -117 171 -204 215 -82 41 -141 43 -241 7z"/>
<path d="M28414 7309 c-115 -14 -236 -101 -313 -224 -58 -92 -77 -144 -128
-360 -45 -190 -45 -190 -50 -422 -6 -251 2 -360 43 -608 30 -182 49 -261 82
-340 55 -130 131 -217 227 -261 97 -45 282 -42 375 6 74 38 149 145 209 298
28 70 79 399 83 527 l3 100 -50 7 c-66 8 -350 10 -409 2 -57 -8 -69 -26 -55
-80 17 -63 25 -67 115 -55 43 5 125 13 182 17 l102 6 0 -32 c0 -17 -9 -84 -20
-148 -61 -346 -121 -474 -245 -523 -44 -17 -183 -15 -225 3 -93 41 -170 147
-194 268 -9 41 -24 107 -35 147 -11 40 -25 115 -30 167 -14 123 -14 629 0 751
22 204 118 463 204 551 33 34 51 43 103 54 73 15 226 9 263 -10 64 -35 94
-114 135 -359 35 -214 46 -242 82 -222 45 24 65 145 43 272 -6 30 -15 88 -21
129 -20 128 -105 262 -197 313 -27 15 -173 40 -208 36 -5 -1 -38 -5 -71 -10z"/>
<path d="M8587 7158 c10 -196 7 -1629 -4 -1853 -4 -93 -6 -185 -4 -202 l3 -33
372 0 c354 0 372 1 404 20 31 19 33 24 30 68 l-3 47 -55 7 c-30 3 -184 6 -342
7 l-287 1 5 363 c3 199 7 368 10 375 3 10 38 11 163 7 94 -3 170 -1 185 5 24
9 26 14 26 76 l0 66 -187 -3 -188 -4 -1 485 c-1 267 1 506 3 533 l5 47 233 0
c191 0 236 3 248 15 16 15 33 103 22 113 -4 4 -151 8 -326 10 l-320 3 8 -153z"/>
<path d="M13471 6571 c-29 -5 -36 -12 -44 -41 -13 -49 -3 -121 19 -137 22 -16
94 -17 127 -2 56 26 79 134 34 164 -28 18 -89 25 -136 16z"/>
<path d="M15464 6566 c-22 -10 -33 -23 -37 -42 -7 -39 10 -136 25 -146 7 -4
38 -8 70 -8 54 0 58 2 88 40 29 37 32 45 25 88 -10 66 -27 82 -89 82 -28 -1
-65 -7 -82 -14z"/>
<path d="M22840 6563 c-33 -17 -35 -22 -38 -71 -4 -70 13 -96 73 -111 53 -13
63 -10 104 43 36 45 41 92 13 126 -25 31 -104 38 -152 13z"/>
<path d="M26050 6558 c-38 -20 -45 -28 -48 -57 -7 -73 42 -131 112 -131 22 0
46 4 52 8 20 13 38 56 44 105 6 41 3 51 -16 72 -30 32 -84 33 -144 3z"/>
<path d="M25705 6471 c-91 -41 -172 -155 -196 -275 l-11 -53 -112 -6 c-179 -8
-261 -49 -316 -157 -80 -158 -79 -322 2 -430 18 -24 39 -51 47 -61 12 -17 10
-23 -13 -53 -53 -70 -87 -201 -72 -280 5 -25 22 -50 52 -79 l45 -44 -29 -64
c-38 -82 -52 -151 -52 -248 0 -104 21 -163 80 -222 150 -150 476 -122 592 51
85 127 98 250 38 377 -39 84 -87 135 -165 176 -59 31 -62 31 -242 37 -131 3
-186 9 -195 18 -8 8 -12 36 -11 78 1 54 7 74 35 120 50 84 52 85 131 71 88
-15 224 3 283 38 46 27 115 113 133 164 14 44 14 258 -1 302 -6 19 -36 62 -67
97 -89 101 -86 92 -51 152 52 88 89 127 142 150 66 28 98 61 98 99 0 24 -7 34
-30 46 -38 20 -66 19 -115 -4z m-216 -446 c36 -18 104 -94 126 -141 9 -19 19
-59 22 -88 5 -45 1 -61 -26 -114 -40 -80 -93 -138 -138 -153 -20 -6 -66 -11
-103 -11 -152 2 -229 78 -230 227 0 84 11 126 45 175 29 41 102 98 143 110 45
14 131 11 161 -5z m12 -1029 c114 -26 160 -88 166 -221 4 -69 1 -86 -19 -125
-44 -85 -149 -128 -278 -114 -81 8 -113 21 -147 57 -82 88 -95 163 -48 278 39
97 46 107 74 118 57 22 174 26 252 7z"/>
<path d="M16933 6473 l-43 -4 -1 -152 c-1 -84 -1 -156 0 -161 1 -6 0 -20 -3
-32 -5 -19 -15 -23 -67 -29 -57 -7 -62 -9 -75 -41 -24 -58 -8 -77 72 -89 l69
-10 5 -345 5 -345 32 -65 c42 -85 63 -106 125 -125 78 -23 166 -20 219 8 52
28 129 133 129 177 0 31 -14 40 -67 40 -27 0 -41 -7 -61 -32 -66 -79 -83 -90
-127 -83 -47 7 -80 27 -96 56 -7 14 -13 138 -17 369 l-5 347 147 6 c81 4 151
9 157 12 11 7 12 132 2 138 -5 3 -71 1 -148 -4 -104 -6 -142 -5 -148 4 -5 7
-5 84 -2 172 3 88 3 168 0 178 -7 17 -13 18 -102 10z"/>
<path d="M10865 6128 c-46 -17 -109 -63 -148 -109 -20 -23 -40 -38 -46 -34 -6
3 -11 28 -11 54 0 71 -12 81 -87 74 l-63 -6 0 -857 0 -857 43 -6 c44 -6 88 0
97 14 3 4 5 36 3 71 -1 35 1 181 4 326 l5 262 45 0 c107 0 346 167 439 307 20
31 53 104 73 162 34 103 35 111 36 256 l0 150 -33 65 c-45 86 -66 107 -126
125 -57 17 -187 19 -231 3z m167 -118 c66 -44 82 -86 82 -218 0 -256 -64 -405
-226 -527 -44 -33 -66 -43 -83 -39 -13 3 -39 -3 -61 -14 -58 -29 -81 -34 -86
-20 -3 7 -2 141 2 298 7 285 7 285 34 341 50 101 184 209 261 209 18 0 50 -12
77 -30z"/>
<path d="M11736 6124 c-87 -27 -167 -128 -218 -274 -24 -70 -42 -294 -33 -419
8 -116 41 -196 112 -272 68 -73 127 -99 228 -99 214 0 336 85 336 234 0 100
-24 102 -106 6 -92 -107 -138 -140 -197 -140 -92 0 -175 60 -218 157 -18 42
-49 228 -39 237 2 2 108 6 234 10 237 7 308 15 328 35 15 15 14 202 -2 286
-24 126 -89 212 -185 240 -63 19 -176 18 -240 -1z m203 -111 c61 -45 124 -179
138 -290 l6 -51 -89 -4 c-49 -3 -154 -4 -234 -4 l-145 1 3 50 c10 147 78 267
176 311 40 18 111 12 145 -13z"/>
<path d="M12713 6126 c-74 -18 -128 -57 -170 -124 -69 -108 -77 -148 -77 -407
0 -214 1 -234 22 -293 58 -161 132 -224 282 -238 111 -10 181 8 236 58 45 42
90 120 104 184 7 31 5 40 -15 60 -32 32 -82 33 -94 2 -46 -119 -69 -149 -137
-179 -44 -20 -86 -18 -135 7 -34 17 -95 86 -112 126 -24 57 -51 210 -50 288 0
127 53 287 119 360 47 52 82 70 135 70 39 0 48 -5 95 -54 54 -56 74 -108 74
-196 0 -40 20 -70 46 -70 16 0 65 29 76 45 25 34 -3 159 -57 250 -63 108 -188
148 -342 111z"/>
<path d="M14145 6126 c-56 -18 -117 -50 -137 -73 -22 -24 -44 -86 -58 -163
-12 -66 -5 -91 31 -110 25 -14 46 8 95 105 60 116 107 155 191 155 108 0 142
-53 150 -234 l6 -122 -147 -11 c-128 -10 -154 -15 -210 -41 -76 -35 -137 -89
-161 -139 -22 -46 -25 -227 -5 -288 19 -60 57 -105 108 -127 39 -17 61 -20
147 -16 109 5 176 28 250 84 43 32 52 26 70 -43 12 -46 14 -48 46 -48 l34 0 0
426 0 427 -45 90 c-42 85 -48 92 -95 114 -61 27 -207 35 -270 14z m246 -555
c20 -16 24 -30 27 -95 6 -105 -2 -137 -47 -188 -45 -51 -149 -108 -198 -108
-77 0 -151 59 -160 129 -6 46 20 156 44 183 15 17 150 75 206 88 58 14 104 11
128 -9z"/>
<path d="M17784 6122 c-76 -26 -128 -73 -163 -145 -17 -34 -33 -80 -37 -103
-6 -39 -4 -42 40 -78 25 -21 49 -35 54 -32 5 3 17 27 27 53 34 90 74 160 110
191 30 27 44 32 86 32 79 0 153 -47 178 -113 16 -40 14 -219 -1 -239 -11 -13
-40 -17 -163 -20 -167 -4 -197 -13 -275 -84 -77 -70 -123 -219 -101 -325 28
-133 110 -199 250 -199 97 0 136 13 212 70 35 27 67 46 71 43 5 -2 11 -21 14
-42 9 -57 16 -62 83 -68 l62 -6 -6 354 c-8 447 -14 511 -56 589 -53 100 -127
140 -258 140 -46 -1 -96 -8 -127 -18z m286 -552 c12 -7 15 -33 15 -126 l0
-116 -60 -56 c-73 -67 -133 -96 -200 -96 -63 0 -107 23 -145 76 -49 68 -35
139 48 230 47 52 107 78 202 88 109 11 123 11 140 0z"/>
<path d="M19290 6131 c-116 -25 -200 -117 -266 -286 -24 -63 -27 -86 -31 -235
-6 -184 3 -251 42 -335 36 -76 114 -158 181 -191 51 -25 61 -26 164 -22 101 4
115 7 177 39 85 44 105 78 107 187 1 71 -1 77 -20 80 -16 2 -31 -10 -58 -47
-90 -122 -191 -185 -258 -162 -45 16 -124 80 -153 123 -28 42 -55 154 -55 227
l0 48 238 6 c269 6 325 15 342 56 30 73 -44 381 -108 455 -42 48 -204 79 -302
57z m159 -118 c42 -32 100 -122 121 -191 23 -73 26 -141 8 -147 -27 -8 -406
-11 -428 -3 -22 8 -23 11 -16 85 7 86 32 139 97 204 63 63 97 81 148 76 24 -3
55 -14 70 -24z"/>
<path d="M26736 6124 c-59 -18 -126 -63 -149 -97 -21 -32 -57 -144 -57 -177 0
-15 10 -36 25 -50 14 -13 25 -30 25 -38 0 -33 27 1 77 99 30 57 64 115 76 127
68 73 178 69 253 -9 28 -29 29 -34 33 -150 5 -179 18 -164 -151 -164 -137 0
-146 -1 -205 -29 -69 -32 -135 -95 -160 -154 -23 -55 -23 -233 0 -293 34 -89
106 -129 231 -129 83 0 129 11 210 51 52 26 63 28 88 18 16 -6 35 -24 43 -40
17 -32 50 -46 70 -29 13 11 15 73 15 394 0 425 -3 451 -65 562 -50 90 -100
117 -220 121 -61 2 -106 -2 -139 -13z m253 -561 c17 -15 22 -34 27 -98 9 -109
-5 -155 -59 -198 -131 -105 -267 -108 -334 -7 -27 39 -30 96 -8 162 21 61 58
93 146 128 90 36 193 41 228 13z"/>
<path d="M31477 6129 c-120 -28 -204 -129 -249 -297 -26 -99 -37 -371 -18
-464 24 -124 88 -223 179 -276 43 -26 53 -27 171 -27 144 1 173 10 244 75 54
50 86 112 86 166 0 45 -14 64 -47 64 -22 0 -27 -5 -86 -94 -18 -28 -55 -65
-81 -83 -40 -27 -57 -33 -103 -33 -73 0 -141 30 -173 77 -40 58 -90 193 -97
259 l-6 61 249 6 c250 6 319 14 336 39 5 7 7 78 5 158 -2 118 -6 152 -22 185
-34 70 -86 135 -124 154 -72 37 -182 49 -264 30z m184 -112 c50 -33 84 -106
104 -221 9 -54 14 -104 11 -112 -4 -11 -48 -14 -237 -14 l-231 0 7 43 c8 45
54 177 80 227 16 31 65 73 105 89 47 19 124 13 161 -12z"/>
<path d="M33153 6131 c-58 -15 -141 -61 -171 -96 -24 -27 -32 -47 -38 -102
-12 -102 -11 -160 4 -175 11 -11 20 -5 52 32 22 24 54 73 72 109 57 113 92
141 173 141 97 0 140 -50 156 -183 6 -46 9 -106 7 -133 l-3 -49 -145 -6 c-80
-4 -159 -11 -175 -16 -86 -28 -158 -83 -193 -147 -13 -25 -17 -59 -17 -173 l0
-141 30 -43 c40 -57 101 -81 210 -83 110 -1 145 8 220 59 36 25 69 45 75 45 5
0 14 -18 20 -40 13 -48 42 -70 91 -70 42 0 54 17 39 55 -5 14 -12 200 -15 412
l-6 386 -42 84 c-39 79 -45 85 -97 110 -42 20 -73 27 -135 29 -44 2 -94 -1
-112 -5z m241 -575 c14 -58 17 -154 6 -196 -22 -81 -162 -190 -245 -190 -37 0
-104 30 -128 58 -26 29 -32 92 -17 175 22 115 67 146 250 171 102 14 127 11
134 -18z"/>
<path d="M9757 6116 c-100 -27 -142 -88 -153 -222 -13 -160 25 -207 303 -369
45 -27 97 -64 115 -82 29 -30 33 -41 36 -101 4 -78 -12 -111 -74 -158 -34 -26
-45 -29 -114 -29 -75 0 -78 1 -125 39 -61 50 -79 93 -71 168 7 69 1 88 -28 88
-32 0 -61 -24 -89 -75 -24 -42 -25 -48 -13 -93 27 -102 111 -192 199 -213 73
-17 234 -6 295 21 116 52 192 190 163 298 -6 22 -31 68 -56 101 -47 64 -113
112 -253 186 -82 43 -142 103 -162 164 -17 53 1 120 44 165 60 63 177 55 227
-15 29 -41 57 -108 70 -167 6 -29 14 -54 18 -56 4 -3 26 17 49 44 42 49 42 49
32 96 -16 69 -60 153 -93 176 -62 44 -220 61 -320 34z"/>
<path d="M16129 6116 c-57 -15 -105 -49 -126 -89 -18 -34 -31 -214 -19 -262
15 -59 132 -158 266 -225 148 -74 196 -131 188 -221 -17 -177 -266 -233 -356
-80 -20 34 -26 61 -30 121 -4 66 -7 79 -23 83 -24 7 -84 -9 -97 -26 -17 -21
-24 -112 -13 -155 15 -55 80 -135 138 -169 43 -25 59 -28 157 -32 192 -6 259
25 329 156 73 136 32 245 -141 375 -37 27 -94 62 -127 77 -42 20 -80 49 -127
99 -61 63 -68 74 -68 110 0 29 9 53 33 88 53 77 124 102 201 70 48 -20 72 -58
91 -138 16 -71 49 -148 63 -148 4 0 21 25 36 56 25 50 28 63 22 116 -7 72 -39
134 -83 164 -60 40 -220 55 -314 30z"/>
<path d="M20043 6109 l-43 -20 6 -262 c3 -144 1 -359 -4 -477 -4 -118 -7 -223
-4 -232 5 -20 65 -51 90 -46 15 3 18 32 24 314 l7 310 42 84 c54 110 82 146
143 181 72 41 151 41 194 1 55 -52 61 -93 68 -513 l7 -379 22 0 c12 0 40 13
63 29 l40 30 -4 263 c-7 416 -9 458 -34 542 -18 58 -33 87 -64 120 -55 59
-103 72 -205 57 -96 -15 -151 -42 -201 -103 -63 -74 -80 -62 -80 60 0 70 -2
71 -67 41z"/>
<path d="M29490 6121 c-66 -21 -144 -86 -193 -161 -23 -35 -61 -164 -93 -319
-3 -13 -5 -64 -5 -115 0 -159 51 -277 163 -381 38 -35 85 -69 105 -76 23 -7
76 -10 147 -7 96 4 118 8 164 32 77 39 132 132 132 223 0 29 -4 33 -35 39 -47
8 -62 1 -78 -38 -20 -47 -93 -126 -138 -148 -51 -26 -90 -25 -147 4 -52 26
-102 76 -142 141 -22 35 -25 51 -25 137 0 53 2 99 5 101 3 3 88 8 190 12 305
9 369 15 387 33 25 25 12 164 -27 287 -66 208 -101 238 -280 242 -58 1 -116
-1 -130 -6z m174 -95 c75 -31 136 -158 136 -281 0 -62 -2 -66 -26 -76 -33 -12
-414 -10 -430 2 -17 14 1 107 35 181 32 70 88 141 135 169 37 22 103 25 150 5z"/>
<path d="M30250 5823 c0 -170 -3 -405 -7 -524 -6 -215 -6 -216 15 -221 13 -4
31 1 46 13 13 10 29 19 35 19 6 0 12 1 13 3 1 1 4 142 8 312 6 304 7 311 33
373 52 125 87 159 204 197 48 15 55 15 86 0 45 -21 76 -50 82 -78 3 -12 6
-201 7 -420 3 -436 0 -417 64 -417 75 0 82 38 80 480 -1 339 -3 352 -73 457
-50 75 -83 93 -176 93 -103 0 -175 -28 -244 -93 l-53 -50 0 46 c0 25 -3 53 -6
62 -6 15 -82 55 -105 55 -5 0 -9 -128 -9 -307z"/>
<path d="M32534 6048 c-48 -46 -101 -110 -124 -150 -23 -37 -45 -68 -49 -68
-9 0 -21 122 -21 222 0 77 1 77 -90 57 l-50 -11 0 -513 0 -513 33 -6 c51 -10
97 3 102 28 2 11 6 128 8 259 l4 239 43 84 c83 164 189 282 272 305 50 13 110
65 106 92 -2 14 -19 24 -63 38 -33 10 -66 19 -74 19 -7 0 -51 -37 -97 -82z"/>
<path d="M23346 6113 c-3 -4 -6 -240 -6 -525 l0 -518 33 0 c43 0 99 17 109 32
4 7 8 134 8 281 0 181 4 275 11 290 16 30 136 172 195 231 26 27 72 60 102 75
61 29 99 83 87 121 -6 20 -11 21 -83 15 -43 -4 -89 -14 -104 -21 -26 -14 -71
-67 -132 -159 -19 -30 -42 -51 -54 -53 -21 -3 -22 0 -22 108 0 80 -3 112 -12
114 -25 8 -126 14 -132 9z"/>
<path d="M24082 6083 l-53 -38 4 -345 c3 -316 5 -352 25 -424 26 -93 72 -170
116 -194 24 -12 55 -16 139 -15 143 2 169 12 211 76 35 56 62 83 69 70 2 -4 8
-37 11 -73 4 -36 13 -68 19 -72 17 -11 81 -10 111 2 31 12 34 48 11 137 -18
68 -21 450 -5 580 6 45 11 132 13 195 l2 113 -63 9 c-34 5 -64 7 -66 5 -2 -2
-7 -165 -11 -361 l-8 -358 -31 -36 c-86 -98 -125 -132 -171 -148 -104 -35
-180 -13 -217 62 -23 46 -23 52 -25 447 -1 323 -4 401 -15 403 -7 1 -37 -14
-66 -35z"/>
<path d="M26054 6108 c-11 -17 -17 -923 -7 -988 7 -49 11 -55 33 -58 17 -2 36
7 57 27 l33 30 0 293 c0 161 4 368 10 460 6 103 6 176 1 191 -7 17 -24 30 -57
41 -57 19 -61 19 -70 4z"/>
<path d="M13442 5588 l3 -523 26 -3 c14 -2 42 7 62 18 46 27 50 46 45 231 -1
79 -2 286 0 459 1 173 2 321 2 328 0 8 -21 12 -70 12 l-70 0 2 -522z"/>
<path d="M15460 5591 c0 -589 -5 -555 78 -510 l45 24 -1 260 c-1 143 4 363 11
488 7 126 9 234 5 240 -4 6 -36 13 -72 15 l-66 4 0 -521z"/>
<path d="M22819 5943 c-1 -93 -1 -328 -1 -523 l0 -355 25 -3 c27 -3 75 17 101
43 14 15 16 72 16 511 l0 494 -70 0 -70 0 -1 -167z"/>
<path d="M13960 4227 c-146 -34 -321 -169 -381 -294 -55 -115 -72 -207 -67
-368 l3 -143 52 -103 c48 -96 131 -209 154 -209 6 0 31 -14 56 -31 67 -46 188
-96 268 -110 82 -14 234 -7 319 16 83 22 181 73 238 124 l49 44 -28 24 c-15
13 -45 35 -67 49 -46 31 -89 29 -181 -6 -53 -21 -78 -24 -205 -24 -145 -1
-146 -1 -213 32 -81 40 -157 114 -194 189 -22 46 -27 73 -31 157 -9 212 65
364 212 432 127 59 305 69 431 25 119 -42 221 -135 246 -224 7 -23 12 -95 13
-160 1 -113 0 -120 -23 -138 -26 -21 -54 -24 -98 -8 l-30 10 1 163 c1 117 -3
167 -11 178 -10 11 -50 17 -165 24 -347 20 -405 2 -464 -145 -40 -101 -39
-185 5 -278 18 -39 45 -83 60 -97 37 -36 103 -56 181 -56 79 0 144 20 183 57
27 27 28 27 57 10 71 -42 312 -44 372 -3 71 47 128 177 128 289 -1 146 -62
308 -154 405 -54 57 -164 131 -236 158 -59 22 -397 30 -480 11z m318 -546 c9
-11 12 -35 10 -75 -4 -52 -9 -63 -38 -89 -30 -27 -38 -29 -91 -25 -65 5 -93
28 -105 86 -8 39 2 99 19 109 40 25 183 21 205 -6z"/>
<path d="M15257 4225 c-201 -71 -301 -298 -212 -480 44 -92 92 -130 281 -225
180 -91 214 -120 214 -182 0 -43 -16 -65 -62 -89 -34 -17 -55 -20 -117 -17
-65 3 -91 10 -181 52 -157 72 -152 73 -193 -15 -19 -41 -40 -91 -47 -113 -12
-36 -11 -40 16 -67 16 -15 79 -49 139 -75 103 -44 117 -47 215 -52 201 -9 335
31 433 130 94 94 120 235 72 395 -12 40 -25 60 -58 86 -73 58 -167 113 -310
183 -77 37 -141 73 -144 80 -8 20 35 140 58 160 18 16 27 16 94 6 40 -6 102
-23 138 -37 35 -14 77 -27 93 -28 26 -2 32 4 54 48 14 28 35 66 48 86 12 20
22 43 22 50 0 20 -126 96 -180 108 -67 16 -327 13 -373 -4z"/>
<path d="M21766 3999 c-3 -34 -6 -97 -6 -140 l0 -79 -54 0 c-31 0 -58 -5 -64
-12 -5 -7 -13 -52 -17 -99 -8 -98 -12 -93 78 -104 l57 -7 0 -132 c0 -182 9
-294 26 -342 19 -53 72 -103 120 -115 82 -18 289 -4 305 22 7 11 -18 101 -41
152 -9 18 -34 37 -75 56 -74 35 -75 38 -75 232 l0 126 76 5 c50 3 79 10 85 19
14 23 11 179 -3 180 -7 0 -44 2 -82 3 -44 2 -71 8 -78 17 -5 8 -7 74 -6 147
l4 132 -122 0 -121 0 -7 -61z"/>
<path d="M17978 3779 c-105 -16 -209 -103 -248 -207 -44 -118 -44 -286 0 -404
27 -73 138 -183 194 -193 55 -11 316 0 351 14 25 10 31 10 42 -5 7 -10 13 -28
13 -40 0 -19 -8 -24 -52 -33 -71 -14 -186 -29 -278 -36 -41 -3 -122 -15 -180
-26 -119 -22 -470 -39 -806 -39 -151 0 -252 -5 -355 -19 -184 -25 -352 -39
-559 -46 -91 -4 -293 -15 -450 -26 -327 -22 -322 -21 -895 -54 -236 -14 -441
-27 -455 -30 -27 -5 -644 -49 -845 -61 -67 -3 -129 -12 -140 -19 -30 -19 -64
-23 -255 -35 -168 -11 -325 -30 -402 -49 -32 -7 -39 -6 -59 15 -21 23 -29 24
-146 24 -102 0 -130 -3 -162 -19 -46 -24 -73 -52 -42 -44 15 4 21 1 21 -11 0
-10 -17 -24 -43 -35 -39 -17 -87 -61 -87 -81 0 -4 11 -15 25 -24 22 -15 48
-15 257 -6 274 13 277 13 303 27 11 6 45 12 75 14 51 4 55 2 58 -18 5 -32 20
-29 24 4 3 25 7 28 48 31 25 1 104 9 175 17 72 8 247 22 390 30 642 38 917 56
1475 99 304 23 693 46 794 46 50 0 118 5 151 10 33 5 178 21 323 35 144 14
282 30 305 35 23 6 99 13 168 17 112 5 128 4 154 -13 47 -31 250 -33 396 -3
177 36 424 29 674 -17 112 -20 352 -15 430 11 85 27 173 43 365 64 297 32 317
33 415 16 160 -28 628 -40 1000 -26 182 7 398 19 480 26 217 20 500 29 569 17
37 -6 90 -6 150 1 97 10 832 -6 1021 -23 55 -5 276 -16 490 -25 232 -9 430
-22 488 -31 60 -10 116 -13 145 -9 87 13 358 16 498 6 76 -5 216 -17 309 -25
94 -8 265 -20 380 -26 116 -6 296 -20 400 -30 285 -29 518 -41 730 -39 215 2
294 -7 532 -57 93 -19 200 -41 238 -49 39 -7 63 -13 55 -14 -197 -17 -409 -23
-1145 -31 -746 -8 -901 -12 -1015 -27 -184 -24 -698 -23 -995 2 -175 14 -367
18 -1145 21 -913 4 -1377 14 -1402 31 -7 4 -16 8 -20 9 -5 1 -9 3 -10 4 -7 7
-184 7 -193 0 -16 -12 -107 -10 -140 4 -38 15 -419 13 -486 -3 -26 -6 -123
-10 -215 -10 -93 0 -196 0 -229 -1 -33 0 -126 -2 -206 -3 -109 -1 -153 2 -172
12 -21 11 -31 12 -57 1 -21 -8 -34 -9 -43 -2 -6 5 -25 8 -42 6 -107 -15 -167
-15 -221 1 -57 16 -157 14 -194 -5 -15 -7 -73 -11 -555 -30 -246 -10 -565 -29
-575 -35 -3 -2 -59 -6 -125 -10 -66 -3 -255 -17 -420 -30 -165 -14 -334 -27
-375 -30 -41 -3 -172 -17 -290 -31 -344 -40 -510 -72 -546 -105 -32 -30 -154
-52 -239 -44 -143 15 -273 -1 -520 -65 -60 -16 -176 -42 -257 -60 -81 -17
-184 -42 -230 -56 -134 -42 -185 -52 -343 -68 -178 -19 -206 -26 -306 -77 -41
-21 -80 -39 -86 -39 -53 0 -403 -139 -403 -160 0 -5 11 -15 24 -22 13 -7 38
-21 57 -32 30 -17 41 -18 126 -7 125 15 174 14 201 -5 21 -14 25 -14 40 -1 9
8 49 17 87 21 260 24 1664 36 1962 16 81 -5 294 -19 473 -30 666 -41 762 -49
965 -82 86 -13 190 -22 307 -24 188 -3 382 -27 409 -50 11 -10 65 -17 175 -24
87 -6 176 -15 198 -21 21 -6 75 -10 119 -10 44 0 119 -6 166 -13 134 -22 406
-85 474 -109 52 -19 62 -26 60 -44 -3 -24 17 -34 57 -28 14 2 45 7 70 10 65
10 320 -38 369 -69 70 -45 166 -83 221 -90 70 -7 416 -88 495 -115 33 -11 103
-30 155 -41 52 -12 124 -30 160 -40 81 -23 121 -29 235 -35 50 -3 119 -10 155
-16 63 -10 239 -79 264 -104 7 -7 61 -30 122 -50 60 -21 159 -57 219 -80 61
-23 137 -49 170 -59 100 -29 491 -160 643 -216 79 -29 145 -50 148 -47 8 8
-331 137 -481 182 -44 13 -132 44 -195 69 -63 24 -133 51 -155 60 -22 8 -106
36 -187 61 -95 30 -169 60 -210 86 -151 94 -273 146 -433 185 -38 9 -87 25
-107 35 -21 11 -66 22 -100 25 -70 6 -98 13 -213 54 -44 15 -100 34 -125 41
-25 7 -59 21 -76 31 -18 10 -47 17 -65 16 -40 -2 -327 69 -454 113 -49 17
-141 42 -204 55 -63 13 -138 33 -167 43 -28 11 -54 18 -56 15 -5 -4 -171 18
-273 37 -33 6 -151 33 -262 59 -111 27 -268 61 -350 74 -402 69 -719 113 -868
121 -49 2 -123 11 -163 20 -40 9 -85 17 -100 19 -15 2 -63 11 -107 20 -44 9
-93 18 -110 21 -58 10 -312 25 -605 35 -162 6 -383 17 -490 25 -107 8 -328 19
-490 24 -162 6 -358 13 -435 16 -124 5 -755 6 -844 2 -22 -1 -37 4 -45 15 -24
38 2 43 252 45 367 3 395 8 478 76 82 67 154 88 191 55 10 -9 38 -22 63 -28
41 -11 52 -10 115 14 109 42 493 155 560 166 55 8 100 12 325 25 41 2 152 15
245 29 94 14 207 28 252 32 80 7 84 6 109 -20 34 -33 61 -33 286 -1 212 30
415 44 748 51 166 3 284 11 339 21 57 11 115 14 185 10 55 -3 200 1 321 9 258
16 1400 19 1615 4 74 -5 221 -16 325 -24 256 -21 370 -20 688 5 307 23 578 22
686 -4 89 -22 481 -34 536 -17 61 19 157 28 185 17 43 -16 107 -19 380 -18
299 1 588 -11 925 -39 181 -16 319 -20 650 -20 406 0 421 1 454 21 64 39 278
33 431 -11 47 -13 153 -13 167 1 7 7 104 17 255 25 251 13 492 31 518 39 8 3
78 11 155 20 77 8 232 28 345 44 113 16 291 41 395 56 105 14 233 32 285 41
52 8 153 21 224 28 85 9 131 18 137 27 5 8 9 60 9 117 0 100 -1 103 -25 114
-19 8 -90 8 -288 -1 l-262 -12 -100 26 c-183 47 -446 96 -558 105 -62 6 -209
10 -327 10 -249 0 -621 16 -723 30 -99 14 -444 37 -752 50 -143 6 -307 15
-364 20 -76 7 -108 7 -118 -1 -9 -8 -62 -10 -176 -6 -342 12 -678 28 -812 39
-82 6 -435 12 -849 14 -390 2 -781 8 -870 14 -88 5 -195 10 -236 10 -49 0 -83
5 -96 14 -11 8 -43 16 -70 18 l-49 3 -5 325 c-5 319 -5 326 -28 362 -58 94
-174 148 -322 151 -81 2 -88 0 -120 -26 -23 -20 -40 -27 -54 -22 -48 13 -127
24 -213 28 l-93 4 0 -398 0 -399 26 -6 c29 -7 211 0 220 9 3 3 10 115 15 249
5 148 14 261 22 288 l13 45 117 -1 c65 0 122 -5 127 -10 4 -5 11 -139 14 -299
2 -159 5 -291 5 -292 2 -5 75 -14 171 -21 l105 -8 -170 -7 c-93 -4 -251 -12
-350 -17 -99 -5 -275 -12 -392 -15 -116 -4 -226 -8 -245 -9 -226 -21 -269 -23
-403 -11 -38 3 -138 6 -221 8 -84 1 -151 4 -149 7 4 6 -49 13 -100 13 -216 -1
-559 -18 -685 -34 -85 -11 -176 -22 -202 -26 -27 -3 -48 -3 -48 0 0 3 7 39 16
79 13 60 15 142 15 457 -1 211 -4 388 -7 393 -6 9 -199 4 -292 -8 -23 -3 -75
2 -115 10 -92 19 -160 24 -219 15z m257 -246 c52 -25 69 -64 68 -163 0 -53 -5
-97 -14 -115 -18 -37 -71 -57 -154 -58 -109 -2 -155 45 -155 156 0 94 37 162
105 193 35 16 101 10 150 -13z m1348 -664 c-14 -14 -283 -22 -283 -9 0 10 60
15 200 18 71 2 91 -1 83 -9z m6386 -325 c2 -2 -5 -4 -17 -4 -12 0 -25 0 -29
-1 -4 0 -9 5 -11 11 -3 7 5 9 25 4 15 -4 30 -8 32 -10z m-3648 -204 c11 0 19
-7 19 -15 0 -16 -21 -20 -34 -8 -4 4 -23 6 -42 4 -18 -1 -34 2 -34 7 0 17 15
23 44 18 16 -3 37 -6 47 -6z m-1591 -1490 c0 -5 -4 -10 -10 -10 -5 0 -10 5
-10 10 0 6 5 10 10 10 6 0 10 -4 10 -10z m110 -20 c0 -5 -7 -10 -16 -10 -8 0
-12 5 -9 10 3 6 10 10 16 10 5 0 9 -4 9 -10z"/>
<path d="M19024 3771 c-212 -78 -315 -241 -286 -451 15 -106 62 -210 111 -249
105 -82 242 -119 395 -106 62 6 92 15 143 41 149 79 162 97 123 162 -43 71
-126 90 -215 51 -55 -25 -197 -29 -242 -7 -28 13 -72 102 -59 116 4 4 142 8
307 10 236 2 301 6 305 16 6 15 -31 117 -69 192 -42 83 -119 159 -203 200 -65
33 -83 37 -166 40 -73 3 -104 0 -144 -15z m183 -167 c34 -17 74 -61 87 -98 6
-18 1 -19 -140 -12 -176 8 -189 12 -145 52 41 37 109 73 139 74 13 0 40 -7 59
-16z"/>
<path d="M19960 3772 c-157 -42 -272 -150 -300 -282 -15 -72 -1 -251 25 -313
24 -58 77 -109 167 -163 l83 -49 155 0 c153 0 156 0 221 31 85 41 186 138 221
214 47 101 45 246 -4 343 -85 168 -362 275 -568 219z m221 -235 c19 -12 44
-42 57 -67 20 -38 23 -55 18 -112 -6 -84 -28 -122 -84 -149 -36 -18 -54 -20
-100 -15 -31 3 -68 15 -82 25 -62 45 -86 147 -53 222 21 47 65 96 98 110 41
16 111 10 146 -14z"/>
<path d="M22595 3776 c-68 -16 -133 -49 -205 -101 -137 -101 -176 -314 -89
-492 56 -117 189 -202 349 -223 171 -23 277 11 400 126 186 176 194 392 20
558 -126 121 -311 172 -475 132z m182 -227 c65 -24 113 -93 113 -162 0 -88
-34 -145 -105 -178 -103 -47 -202 -6 -240 100 -20 58 -19 94 4 139 46 90 143
133 228 101z"/>
<path d="M25800 3783 c-14 -2 -40 -11 -59 -20 -31 -14 -58 -14 -234 -4 -109 6
-203 9 -208 5 -5 -3 -9 -172 -9 -398 l0 -393 68 -6 c37 -4 103 -7 148 -7 l81
0 6 68 c4 37 7 153 7 259 0 105 4 203 10 217 6 18 20 28 47 34 51 13 167 30
172 26 2 -2 6 -23 8 -49 6 -47 22 -62 24 -22 4 66 5 77 9 80 3 2 18 11 33 21
60 37 86 125 51 174 -13 19 -24 22 -72 21 -31 -1 -68 -4 -82 -6z"/>
<path d="M15985 3699 c-4 -46 -3 -200 2 -342 9 -281 8 -277 69 -277 35 0 49
-12 59 -53 12 -45 45 -59 148 -65 124 -6 329 14 381 37 54 24 114 84 140 140
20 43 21 66 24 344 l4 297 -60 0 c-32 0 -93 -3 -135 -6 l-77 -7 0 -172 c0
-257 -9 -382 -29 -391 -9 -3 -59 -8 -111 -11 -71 -4 -100 -1 -113 9 -33 25
-48 128 -54 356 l-5 212 -43 0 c-23 0 -76 3 -117 6 l-76 7 -7 -84z"/>
<path d="M17052 3773 l-92 -4 2 -402 3 -402 139 -3 c77 -1 143 1 148 6 5 5 13
124 17 263 5 157 12 262 19 275 8 16 34 27 99 44 118 29 118 29 119 0 1 -50 4
-60 18 -60 21 0 104 177 111 238 l7 52 -116 0 c-97 0 -122 -3 -155 -20 -21
-12 -55 -24 -75 -27 -29 -4 -37 -2 -43 13 -10 28 -23 34 -68 32 -22 -1 -82 -4
-133 -5z"/>
<path d="M23215 3718 c20 -35 83 -155 139 -268 142 -280 232 -441 260 -466 33
-29 98 -38 136 -19 45 23 58 45 260 425 79 148 167 329 175 358 6 22 5 22
-102 23 -59 1 -125 2 -145 3 -20 2 -41 0 -47 -3 -5 -3 -25 -46 -45 -96 -51
-124 -148 -318 -163 -323 -7 -2 -20 25 -34 70 -32 107 -108 283 -138 317 l-26
29 -153 7 -154 6 37 -63z"/>
<path d="M24471 3769 c-78 -23 -176 -113 -211 -195 -11 -25 -25 -85 -31 -134
-23 -177 22 -320 125 -399 85 -66 115 -74 254 -75 l124 -1 37 44 c38 45 61 48
61 10 0 -11 5 -29 10 -40 10 -17 23 -19 155 -19 l145 0 2 270 c2 149 3 329 3
402 l0 131 -135 -2 c-74 -1 -157 -7 -184 -13 -44 -11 -51 -10 -86 10 -33 19
-53 22 -137 21 -54 0 -113 -5 -132 -10z m299 -235 c50 -43 64 -79 65 -169 0
-91 -14 -122 -68 -155 -46 -29 -154 -28 -191 1 -68 54 -91 174 -48 256 46 88
174 124 242 67z"/>
<path d="M16918 2073 c7 -3 16 -2 19 1 4 3 -2 6 -13 5 -11 0 -14 -3 -6 -6z"/>
<path d="M16575 2053 c-100 -10 -135 -16 -135 -23 0 -17 88 -20 215 -6 200 22
228 35 70 33 -71 -1 -139 -3 -150 -4z"/>
</g>
</svg>
