<?xml version="1.0" standalone="yes"?>
<svg xmlns="http://www.w3.org/2000/svg" width="1000" height="780">
<path style="fill:#ffffff; stroke:none;" d="M0 0L0 780L1000 780L1000 0L0 0z"/>
<path style="fill:#a4a4a4; stroke:none;" d="M683 170L679 175C681.404 173.671 683.084 172.825 683 170z"/>
<path style="fill:#626262; stroke:none;" d="M680 174L681 175L680 174M679 175L680 176L679 175z"/>
<path style="fill:#020202; stroke:none;" d="M678 176L677 178C678.263 177.029 678.392 177.306 678 176z"/>
<path style="fill:#a4a4a4; stroke:none;" d="M678 177L679 178L678 177M676.667 178.333C676.222 178.778 677.278 178.722 677.333 178.667C677.778 178.222 676.722 178.278 676.667 178.333z"/>
<path style="fill:#626262; stroke:none;" d="M676 179L677 180L676 179M674 180L674 182C675.635 181.455 675.455 181.635 676 180L674 180z"/>
<path style="fill:#020202; stroke:none;" d="M672.667 182.333C672.222 182.778 673.278 182.722 673.333 182.667C673.778 182.222 672.722 182.278 672.667 182.333M671 183C664.196 191.646 655.771 199.229 648 207C632.685 222.315 617.008 237.346 602.039 253C589.719 265.885 576.236 277.872 564.184 290.961C553.01 303.098 541.522 317.475 528 327C524.227 313.803 515.9 302.182 509.809 290C498.41 267.203 486.867 244.484 474.836 222C470.607 214.095 466.974 205.925 462.781 198C461.424 195.435 459.758 190.023 455.999 190.466C453.238 190.792 451.676 193.883 450.428 196.005C447.189 201.511 444.499 207.377 441.46 213C432.075 230.363 423.507 248.322 414.731 266C410.905 273.705 406.309 281.052 403 289L452 289L452 296C453.573 294.051 454.291 292.412 455 290L457 290C459.511 298.72 464.304 306.8 468.114 315C476.967 334.053 485.97 353.018 495 372L417 372C425.365 354.412 434.526 336.975 442 319L387 319C381.776 333.356 372.924 347.463 365.781 361C354.261 382.831 343.314 404.981 332.142 427C326.811 437.507 319.861 447.86 316 459L356 459C360.042 459 367.893 460.496 371.301 457.972C373.786 456.132 374.916 451.682 376.248 449C380.041 441.36 383.248 433.448 387.424 426C389.138 422.942 390.672 418.063 394.133 416.603C398.989 414.555 406.796 416 412 416L454 416C459.285 416 467.672 417.582 472.486 415.142C477.281 412.712 481.138 406.094 484.576 402.075C493.1 392.111 501.755 382.256 510.269 372.282C539.115 338.484 568.419 305.081 597.268 271.282C615.587 249.819 634.228 228.634 652.526 207.155C657.045 201.851 661.563 196.543 666.13 191.282C668.35 188.723 671.115 186.478 671 183z"/>
<path style="fill:#626262; stroke:none;" d="M669 185L670 186L669 185z"/>
<path style="fill:#a4a4a4; stroke:none;" d="M671 185L672 186L671 185z"/>
<path style="fill:#626262; stroke:none;" d="M668 186L669 187L668 186z"/>
<path style="fill:#a4a4a4; stroke:none;" d="M670 186L671 187L670 186M669 187L670 188L669 187z"/>
<path style="fill:#626262; stroke:none;" d="M666 188L667 189L666 188M668 188L669 189L668 188z"/>
<path style="fill:#a4a4a4; stroke:none;" d="M453 189C455.052 189.874 456.747 189.953 459 190C456.948 189.126 455.253 189.047 453 189z"/>
<path style="fill:#626262; stroke:none;" d="M452 191L453 192L452 191M459 191L460 192L459 191M663 191L664 192L663 191z"/>
<path style="fill:#a4a4a4; stroke:none;" d="M665 191L665 193C666.635 192.455 666.455 192.635 667 191L665 191M452 192L453 193L452 192z"/>
<path style="fill:#626262; stroke:none;" d="M662 192L663 193L662 192M451 193L452 194L451 193M460 193L461 194L460 193M661 193L662 194L661 193z"/>
<path style="fill:#a4a4a4; stroke:none;" d="M664 193L665 194L664 193z"/>
<path style="fill:#626262; stroke:none;" d="M660 194L661 195L660 194z"/>
<path style="fill:#a4a4a4; stroke:none;" d="M663 194L664 195L663 194z"/>
<path style="fill:#626262; stroke:none;" d="M450 195L451 196L450 195M461 195L462 196L461 195M659 195L660 196L659 195M662 195L663 196L662 195M658 196L659 197L658 196M449 197L450 198L449 197M462 197L463 198L462 197M657 197L658 198L657 197M660 197L661 198L660 197M656 198L657 199L656 198M448 199L449 200L448 199M463 199L464 200L463 199M655 199L656 200L655 199M654 200L655 201L654 200z"/>
<path style="fill:#a4a4a4; stroke:none;" d="M658 200L659 201L658 200z"/>
<path style="fill:#626262; stroke:none;" d="M447 201L448 202L447 201M464 201L465 202L464 201M653 201L654 202L653 201z"/>
<path style="fill:#a4a4a4; stroke:none;" d="M657 201L658 202L657 201M465 202L466 203L465 202z"/>
<path style="fill:#626262; stroke:none;" d="M652 202L653 203L652 202M656 202L657 203L656 202M446 203L447 204L446 203M651 203L652 204L651 203M655 203L656 204L655 203z"/>
<path style="fill:#a4a4a4; stroke:none;" d="M466 204L467 205L466 204z"/>
<path style="fill:#626262; stroke:none;" d="M650 204L651 205L650 204z"/>
<path style="fill:#a4a4a4; stroke:none;" d="M652 204L653 205L652 204z"/>
<path style="fill:#626262; stroke:none;" d="M445 205L446 206L445 205M649 205L650 206L649 205M651 205L652 206L651 205z"/>
<path style="fill:#a4a4a4; stroke:none;" d="M467 206L468 207L467 206z"/>
<path style="fill:#626262; stroke:none;" d="M648 206L649 207L648 206z"/>
<path style="fill:#a4a4a4; stroke:none;" d="M653 206L654 207L653 206z"/>
<path style="fill:#626262; stroke:none;" d="M444 207L445 208L444 207M647 207L648 208L647 207z"/>
<path style="fill:#a4a4a4; stroke:none;" d="M652 207L653 208L652 207M468 208L469 209L468 208z"/>
<path style="fill:#626262; stroke:none;" d="M646 208L647 209L646 208z"/>
<path style="fill:#a4a4a4; stroke:none;" d="M651 208L652 209L651 208z"/>
<path style="fill:#626262; stroke:none;" d="M443 209L444 210L443 209M645 209L646 210L645 209M650 209L651 210L650 209z"/>
<path style="fill:#a4a4a4; stroke:none;" d="M442 210L443 211L442 210M469 210L470 211L469 210z"/>
<path style="fill:#626262; stroke:none;" d="M644 210L645 211L644 210M649 210L650 211L649 210M469 211L470 212L469 211M643 211L644 212L643 211z"/>
<path style="fill:#a4a4a4; stroke:none;" d="M470 212L471 213L470 212z"/>
<path style="fill:#626262; stroke:none;" d="M642 212L643 213L642 212M441 213L442 214L441 213M641 213L642 214L641 213z"/>
<path style="fill:#a4a4a4; stroke:none;" d="M440 214L441 215L440 214M471 214L472 215L471 214z"/>
<path style="fill:#626262; stroke:none;" d="M640 214L641 215L640 214z"/>
<path style="fill:#a4a4a4; stroke:none;" d="M646 214L647 215L646 214z"/>
<path style="fill:#626262; stroke:none;" d="M639 215L640 216L639 215z"/>
<path style="fill:#a4a4a4; stroke:none;" d="M645 215L646 216L645 215M439 216L440 217L439 216z"/>
<path style="fill:#626262; stroke:none;" d="M472 216L473 217L472 216M638 216L639 217L638 216M644 216L645 217L644 216M637 217L638 218L637 217M643 217L644 218L643 217z"/>
<path style="fill:#a4a4a4; stroke:none;" d="M438 218L439 219L438 218z"/>
<path style="fill:#626262; stroke:none;" d="M473 218L474 219L473 218M636 218L637 219L636 218M635 219L636 220L635 219z"/>
<path style="fill:#a4a4a4; stroke:none;" d="M437 220L438 221L437 220M474.333 220.667C474.278 220.722 474.222 221.778 474.667 221.333C474.722 221.278 474.778 220.222 474.333 220.667M634 220L635 221L634 220z"/>
<path style="fill:#626262; stroke:none;" d="M633 221L634 222L633 221z"/>
<path style="fill:#a4a4a4; stroke:none;" d="M640 221L641 222L640 221M436 222L437 223L436 222z"/>
<path style="fill:#626262; stroke:none;" d="M475.333 222.667C475.278 222.722 475.222 223.778 475.667 223.333C475.722 223.278 475.778 222.222 475.333 222.667M632 222L633 223L632 222z"/>
<path style="fill:#a4a4a4; stroke:none;" d="M639 222L640 223L639 222M631 223L632 224L631 223z"/>
<path style="fill:#626262; stroke:none;" d="M638 223L639 224L638 223z"/>
<path style="fill:#a4a4a4; stroke:none;" d="M435.333 224.667C435.278 224.722 435.222 225.778 435.667 225.333C435.722 225.278 435.778 224.222 435.333 224.667z"/>
<path style="fill:#626262; stroke:none;" d="M476 224L477 225L476 224z"/>
<path style="fill:#a4a4a4; stroke:none;" d="M630 224L631 225L630 224z"/>
<path style="fill:#626262; stroke:none;" d="M637 224L638 225L637 224z"/>
<path style="fill:#a4a4a4; stroke:none;" d="M629 225L630 226L629 225z"/>
<path style="fill:#626262; stroke:none;" d="M636 225L637 226L636 225M434 226L435 227L434 226z"/>
<path style="fill:#a4a4a4; stroke:none;" d="M477.333 226.667C477.278 226.722 477.222 227.778 477.667 227.333C477.722 227.278 477.778 226.222 477.333 226.667M628 226L629 227L628 226M627 227L628 228L627 227z"/>
<path style="fill:#626262; stroke:none;" d="M433 228L434 229L433 228M478 228L479 229L478 228z"/>
<path style="fill:#a4a4a4; stroke:none;" d="M626 228L627 229L626 228M625 229L626 230L625 229M633 229L634 230L633 229z"/>
<path style="fill:#626262; stroke:none;" d="M432 230L433 231L432 230M479 230L480 231L479 230z"/>
<path style="fill:#a4a4a4; stroke:none;" d="M624 230L625 231L624 230M632 230L633 231L632 230M623 231L624 232L623 231z"/>
<path style="fill:#626262; stroke:none;" d="M631 231L632 232L631 231M431 232L432 233L431 232M480 232L481 233L480 232z"/>
<path style="fill:#a4a4a4; stroke:none;" d="M622 232L623 233L622 232z"/>
<path style="fill:#626262; stroke:none;" d="M630 232L631 233L630 232z"/>
<path style="fill:#a4a4a4; stroke:none;" d="M621 233L622 234L621 233z"/>
<path style="fill:#626262; stroke:none;" d="M430 234L431 235L430 234M481 234L482 235L481 234z"/>
<path style="fill:#a4a4a4; stroke:none;" d="M620 234L621 235L620 234M619 235L620 236L619 235z"/>
<path style="fill:#626262; stroke:none;" d="M429 236L430 237L429 236M482 236L483 237L482 236z"/>
<path style="fill:#a4a4a4; stroke:none;" d="M618 236L619 237L618 236M627 236L628 237L627 236M483 237L484 238L483 237M617 237L618 238L617 237M626 237L627 238L626 237z"/>
<path style="fill:#626262; stroke:none;" d="M428 238L429 239L428 238z"/>
<path style="fill:#a4a4a4; stroke:none;" d="M616 238L617 239L616 238z"/>
<path style="fill:#626262; stroke:none;" d="M625 238L626 239L625 238z"/>
<path style="fill:#a4a4a4; stroke:none;" d="M484 239L485 240L484 239M615 239L616 240L615 239z"/>
<path style="fill:#626262; stroke:none;" d="M624 239L625 240L624 239M427 240L428 241L427 240z"/>
<path style="fill:#a4a4a4; stroke:none;" d="M614 240L615 241L614 240M485 241L486 242L485 241M613 241L614 242L613 241z"/>
<path style="fill:#626262; stroke:none;" d="M426 242L427 243L426 242z"/>
<path style="fill:#a4a4a4; stroke:none;" d="M612 242L613 243L612 242M486 243L487 244L486 243M611 243L612 244L611 243M621 243L622 244L621 243z"/>
<path style="fill:#626262; stroke:none;" d="M425 244L426 245L425 244z"/>
<path style="fill:#a4a4a4; stroke:none;" d="M610 244L611 245L610 244M620 244L621 245L620 244M487 245L488 246L487 245M609 245L610 246L609 245z"/>
<path style="fill:#626262; stroke:none;" d="M619 245L620 246L619 245M424 246L425 247L424 246z"/>
<path style="fill:#a4a4a4; stroke:none;" d="M608 246L609 247L608 246z"/>
<path style="fill:#626262; stroke:none;" d="M618 246L619 247L618 246z"/>
<path style="fill:#a4a4a4; stroke:none;" d="M488.333 247.667C488.278 247.722 488.222 248.778 488.667 248.333C488.722 248.278 488.778 247.222 488.333 247.667z"/>
<path style="fill:#626262; stroke:none;" d="M423 248L424 249L423 248z"/>
<path style="fill:#a4a4a4; stroke:none;" d="M606 248L607 249L606 248z"/>
<path style="fill:#626262; stroke:none;" d="M489 249L490 250L489 249z"/>
<path style="fill:#a4a4a4; stroke:none;" d="M605 249L606 250L605 249M615 249L615 251C616.635 250.455 616.455 250.635 617 249L615 249z"/>
<path style="fill:#626262; stroke:none;" d="M422 250L423 251L422 250z"/>
<path style="fill:#a4a4a4; stroke:none;" d="M604 250L605 251L604 250z"/>
<path style="fill:#626262; stroke:none;" d="M490 251L491 252L490 251z"/>
<path style="fill:#a4a4a4; stroke:none;" d="M603 251L604 252L603 251M614 251L615 252L614 251M602 252L603 253L602 252z"/>
<path style="fill:#626262; stroke:none;" d="M613 252L614 253L613 252z"/>
<path style="fill:#a4a4a4; stroke:none;" d="M420 253L421 254L420 253M491 253L492 254L491 253M601 253L602 254L601 253z"/>
<path style="fill:#626262; stroke:none;" d="M612 253L613 254L612 253z"/>
<path style="fill:#a4a4a4; stroke:none;" d="M419 255L420 256L419 255z"/>
<path style="fill:#626262; stroke:none;" d="M492 255L493 256L492 255M609 256L610 257L609 256z"/>
<path style="fill:#a4a4a4; stroke:none;" d="M418 257L419 258L418 257z"/>
<path style="fill:#626262; stroke:none;" d="M493 257L494 258L493 257z"/>
<path style="fill:#a4a4a4; stroke:none;" d="M609 257L610 258L609 257z"/>
<path style="fill:#626262; stroke:none;" d="M597 258L598 259L597 258z"/>
<path style="fill:#a4a4a4; stroke:none;" d="M608 258L609 259L608 258M417 259L418 260L417 259z"/>
<path style="fill:#626262; stroke:none;" d="M494 259L495 260L494 259M607 259L608 260L607 259M606 260L607 261L606 260z"/>
<path style="fill:#a4a4a4; stroke:none;" d="M416.333 261.667C416.278 261.722 416.222 262.778 416.667 262.333C416.722 262.278 416.778 261.222 416.333 261.667z"/>
<path style="fill:#626262; stroke:none;" d="M495 261L496 262L495 261z"/>
<path style="fill:#a4a4a4; stroke:none;" d="M415 263L416 264L415 263z"/>
<path style="fill:#626262; stroke:none;" d="M496 263L497 264L496 263z"/>
<path style="fill:#a4a4a4; stroke:none;" d="M603 263L603 265C604.635 264.455 604.455 264.635 605 263L603 263z"/>
<path style="fill:#626262; stroke:none;" d="M414 265L415 266L414 265M497 265L498 266L497 265z"/>
<path style="fill:#a4a4a4; stroke:none;" d="M602 265L603 266L602 265M601 266L602 267L601 266z"/>
<path style="fill:#626262; stroke:none;" d="M413 267L414 268L413 267M498 267L499 268L498 267M600 267L601 268L600 267M599 268L600 269L599 268z"/>
<path style="fill:#a4a4a4; stroke:none;" d="M412.333 269.667C412.278 269.722 412.222 270.778 412.667 270.333C412.722 270.278 412.778 269.222 412.333 269.667z"/>
<path style="fill:#626262; stroke:none;" d="M499 269L500 270L499 269z"/>
<path style="fill:#a4a4a4; stroke:none;" d="M585 269L586 270L585 269z"/>
<path style="fill:#626262; stroke:none;" d="M411 271L412 272L411 271M500 271L501 272L500 271z"/>
<path style="fill:#a4a4a4; stroke:none;" d="M596 272L597 273L596 272z"/>
<path style="fill:#626262; stroke:none;" d="M410 273L411 274L410 273M501 273L502 274L501 273z"/>
<path style="fill:#a4a4a4; stroke:none;" d="M595 273L596 274L595 273M502 274L503 275L502 274z"/>
<path style="fill:#626262; stroke:none;" d="M594 274L595 275L594 274M409.333 275.667C409.278 275.722 409.222 276.778 409.667 276.333C409.722 276.278 409.778 275.222 409.333 275.667M502 275L503 276L502 275z"/>
<path style="fill:#a4a4a4; stroke:none;" d="M580 275L581 276L580 275z"/>
<path style="fill:#626262; stroke:none;" d="M593 275L594 276L593 275z"/>
<path style="fill:#a4a4a4; stroke:none;" d="M503 276L504 277L503 276M579 276L580 277L579 276z"/>
<path style="fill:#626262; stroke:none;" d="M408 277L409 278L408 277z"/>
<path style="fill:#a4a4a4; stroke:none;" d="M504 278L505 279L504 278z"/>
<path style="fill:#626262; stroke:none;" d="M577 278L578 279L577 278M407 279L408 280L407 279z"/>
<path style="fill:#a4a4a4; stroke:none;" d="M576 279L577 280L576 279M590 279L591 280L590 279M505 280L506 281L505 280M575 280L576 281L575 280M589 280L590 281L589 280z"/>
<path style="fill:#626262; stroke:none;" d="M406 281L407 282L406 281M588 281L589 282L588 281z"/>
<path style="fill:#a4a4a4; stroke:none;" d="M506 282L507 283L506 282z"/>
<path style="fill:#626262; stroke:none;" d="M587 282L588 283L587 282M405 283L406 284L405 283z"/>
<path style="fill:#a4a4a4; stroke:none;" d="M507 284L508 285L507 284z"/>
<path style="fill:#626262; stroke:none;" d="M404 285L405 286L404 285z"/>
<path style="fill:#a4a4a4; stroke:none;" d="M508 286L509 287L508 286M584 286L585 287L584 286z"/>
<path style="fill:#626262; stroke:none;" d="M403 287L404 288L403 287z"/>
<path style="fill:#a4a4a4; stroke:none;" d="M583 287L584 288L583 287M402 288L403 289L402 288z"/>
<path style="fill:#626262; stroke:none;" d="M509 288L510 289L509 288M582 288L583 289L582 288M581 289L582 290L581 289M455.667 290.333C455.222 290.778 456.278 290.722 456.333 290.667C456.778 290.222 455.722 290.278 455.667 290.333M510 290L511 291L510 290z"/>
<path style="fill:#a4a4a4; stroke:none;" d="M455 291L456 292L455 291M579 291L578 294C579.289 292.557 579.401 292.766 579 291z"/>
<path style="fill:#626262; stroke:none;" d="M457 292L458 293L457 292M511 292L512 293L511 292z"/>
<path style="fill:#ffffff; stroke:none;" d="M578 292L579 293L578 292z"/>
<path style="fill:#626262; stroke:none;" d="M454 293L455 294L454 293z"/>
<path style="fill:#a4a4a4; stroke:none;" d="M457 293L458 294L457 293z"/>
<path style="fill:#626262; stroke:none;" d="M512 294L513 295L512 294M561 294L562 295L561 294z"/>
<path style="fill:#a4a4a4; stroke:none;" d="M577 294L578 295L577 294z"/>
<path style="fill:#626262; stroke:none;" d="M453 295L454 296L453 295M458 295L459 296L458 295M576 295L577 296L576 295z"/>
<path style="fill:#a4a4a4; stroke:none;" d="M452 296L453 297L452 296z"/>
<path style="fill:#626262; stroke:none;" d="M513 296L514 297L513 296M559 296L560 297L559 296M575 296L576 297L575 296M452 297L453 298L452 297M459 297L460 298L459 297M558 297L559 298L558 297z"/>
<path style="fill:#a4a4a4; stroke:none;" d="M452 298L453 299L452 298z"/>
<path style="fill:#626262; stroke:none;" d="M514 298L515 299L514 298M557 298L558 299L557 298M460 299L461 300L460 299M556 299L557 300L556 299M515 300L516 301L515 300M555 300L556 301L555 300M461 301L462 302L461 301M554 301L555 302L554 301z"/>
<path style="fill:#a4a4a4; stroke:none;" d="M571 301L572 302L571 301z"/>
<path style="fill:#626262; stroke:none;" d="M516 302L517 303L516 302M553 302L554 303L553 302M570 302L571 303L570 302M462 303L463 304L462 303M552 303L553 304L552 303M569 303L570 304L569 303M517 304L518 305L517 304M551 304L552 305L551 304M568 304L569 305L568 304z"/>
<path style="fill:#a4a4a4; stroke:none;" d="M589 304C596.639 307.206 608.729 305 617 305L679 305C671.361 301.794 659.271 304 651 304L589 304z"/>
<path style="fill:#626262; stroke:none;" d="M463 305L464 306L463 305M550 305L551 306L550 305z"/>
<path style="fill:#020202; stroke:none;" d="M411 516C420.303 509.446 428.322 499.325 436.09 491C448.964 477.202 462.23 463.782 475.169 450.039C499.785 423.895 526.903 399.538 550 372C553.609 387.159 551 405.438 551 421L551 517L576 517L576 390L590 390L590 517C594.114 517 597.982 517.043 602 518C599.378 498.035 601 477.122 601 457L601 350L679 350C678.003 335.354 676.301 319.538 679 305L616 305L598 305C595.271 305 591.875 304.508 589.3 305.603C583.363 308.127 577.799 317.843 573.71 322.729C562.463 336.17 551.281 349.698 539.867 362.997C514.907 392.077 490.75 421.865 465.662 450.83C456.015 461.968 446.755 473.437 437.116 484.579C428.321 494.744 418.503 504.845 411 516z"/>
<path style="fill:#a4a4a4; stroke:none;" d="M463 306L464 307L463 306z"/>
<path style="fill:#626262; stroke:none;" d="M518 306L519 307L518 306M549 306L550 307L549 306M587 306L588 307L587 306M464 307L465 308L464 307M548 307L549 308L548 307M586 307L587 308L586 307z"/>
<path style="fill:#a4a4a4; stroke:none;" d="M464 308L465 309L464 308z"/>
<path style="fill:#626262; stroke:none;" d="M519 308L520 309L519 308M547 308L548 309L547 308z"/>
<path style="fill:#a4a4a4; stroke:none;" d="M565 308L566 309L565 308M585 308L586 309L585 308M678 308L678 311C678.696 309.446 678.696 309.554 678 308M520 309L521 310L520 309z"/>
<path style="fill:#626262; stroke:none;" d="M546 309L547 310L546 309z"/>
<path style="fill:#a4a4a4; stroke:none;" d="M564 309L565 310L564 309M584 309L585 310L584 309M465 310L466 311L465 310z"/>
<path style="fill:#626262; stroke:none;" d="M545 310L546 311L545 310M563 310L564 311L563 310z"/>
<path style="fill:#a4a4a4; stroke:none;" d="M521 311L522 312L521 311z"/>
<path style="fill:#626262; stroke:none;" d="M544 311L545 312L544 311M562 311L563 312L562 311M466 312L467 313L466 312M543 312L544 313L543 312M582 312L583 313L582 312M678 312L678 344C680.599 337.806 679 328.686 679 322C679 318.581 679.328 315.166 678 312z"/>
<path style="fill:#a4a4a4; stroke:none;" d="M522 313L523 314L522 313z"/>
<path style="fill:#626262; stroke:none;" d="M542 313L543 314L542 313M581 313L582 314L581 313M467 314L468 315L467 314M541 314L542 315L541 314z"/>
<path style="fill:#a4a4a4; stroke:none;" d="M559 314L559 316C560.635 315.455 560.455 315.635 561 314L559 314M580 314L581 315L580 314M523 315L524 316L523 315z"/>
<path style="fill:#626262; stroke:none;" d="M540 315L541 316L540 315z"/>
<path style="fill:#a4a4a4; stroke:none;" d="M579.333 315.667C579.278 315.722 579.222 316.778 579.667 316.333C579.722 316.278 579.778 315.222 579.333 315.667z"/>
<path style="fill:#626262; stroke:none;" d="M468 316L469 317L468 316M539 316L540 317L539 316z"/>
<path style="fill:#a4a4a4; stroke:none;" d="M558 316L559 317L558 316M524 317L525 318L524 317z"/>
<path style="fill:#626262; stroke:none;" d="M538 317L539 318L538 317M557 317L558 318L557 317M582 317L583 318L582 317M469 318L470 319L469 318M537 318L538 319L537 318M556 318L557 319L556 318z"/>
<path style="fill:#a4a4a4; stroke:none;" d="M525.333 319.667C525.278 319.722 525.222 320.778 525.667 320.333C525.722 320.278 525.778 319.222 525.333 319.667z"/>
<path style="fill:#626262; stroke:none;" d="M536 319L537 320L536 319M576 319L577 320L576 319M386.333 320.667C386.278 320.722 386.222 321.778 386.667 321.333C386.722 321.278 386.778 320.222 386.333 320.667M441 320L442 321L441 320M470 320L471 321L470 320M535 320L536 321L535 320z"/>
<path style="fill:#a4a4a4; stroke:none;" d="M575 320L576 321L575 320M470 321L471 322L470 321M526 321L527 322L526 321z"/>
<path style="fill:#626262; stroke:none;" d="M534 321L535 322L534 321z"/>
<path style="fill:#ffffff; stroke:none;" d="M553 321L554 322L553 321z"/>
<path style="fill:#a4a4a4; stroke:none;" d="M554 321L555 322L554 321M574 321L575 322L574 321z"/>
<path style="fill:#626262; stroke:none;" d="M385 322L386 323L385 322M440 322L441 323L440 322M471 322L472 323L471 322z"/>
<path style="fill:#a4a4a4; stroke:none;" d="M533 322L534 323L533 322M553 322L554 323L553 322M471 323L472 324L471 323M527 323L528 324L527 323z"/>
<path style="fill:#626262; stroke:none;" d="M532 323L533 324L532 323z"/>
<path style="fill:#ffffff; stroke:none;" d="M550 323L551 324L550 323z"/>
<path style="fill:#a4a4a4; stroke:none;" d="M552 323L553 324L552 323z"/>
<path style="fill:#626262; stroke:none;" d="M384 324L385 325L384 324M439 324L440 325L439 324M531 324L532 325L531 324M551 324L552 325L551 324z"/>
<path style="fill:#a4a4a4; stroke:none;" d="M439 325L440 326L439 325M472 325L473 326L472 325M528 325L529 326L528 325z"/>
<path style="fill:#626262; stroke:none;" d="M530 325L531 326L530 325M550 325L551 326L550 325M571 325L572 326L571 325M383 326L384 327L383 326M438 326L439 327L438 326z"/>
<path style="fill:#ffffff; stroke:none;" d="M528 326L529 327L528 326z"/>
<path style="fill:#626262; stroke:none;" d="M529 326L530 327L529 326M570 326L571 327L570 326z"/>
<path style="fill:#a4a4a4; stroke:none;" d="M438 327L439 328L438 327M473 327L474 328L473 327M569 327L570 328L569 327z"/>
<path style="fill:#626262; stroke:none;" d="M382 328L383 329L382 328z"/>
<path style="fill:#a4a4a4; stroke:none;" d="M568 328L569 329L568 328M381 329L382 330L381 329M437 329L438 330L437 329z"/>
<path style="fill:#626262; stroke:none;" d="M474 329L475 330L474 329z"/>
<path style="fill:#a4a4a4; stroke:none;" d="M547 329L548 330L547 329z"/>
<path style="fill:#626262; stroke:none;" d="M381 330L382 331L381 330z"/>
<path style="fill:#a4a4a4; stroke:none;" d="M546 330L547 331L546 330M380 331L381 332L380 331M436 331L437 332L436 331z"/>
<path style="fill:#626262; stroke:none;" d="M475 331L476 332L475 331M545 331L546 332L545 331z"/>
<path style="fill:#a4a4a4; stroke:none;" d="M435.333 332.667C435.278 332.722 435.222 333.778 435.667 333.333C435.722 333.278 435.778 332.222 435.333 332.667z"/>
<path style="fill:#626262; stroke:none;" d="M544 332L545 333L544 332M565 332L566 333L565 332z"/>
<path style="fill:#a4a4a4; stroke:none;" d="M379 333L380 334L379 333z"/>
<path style="fill:#626262; stroke:none;" d="M476 333L477 334L476 333M564 333L565 334L564 333z"/>
<path style="fill:#a4a4a4; stroke:none;" d="M563 334L564 335L563 334M378 335L379 336L378 335z"/>
<path style="fill:#626262; stroke:none;" d="M434 335L435 336L434 335M477 335L478 336L477 335z"/>
<path style="fill:#a4a4a4; stroke:none;" d="M541.333 335.667C541.278 335.722 541.222 336.778 541.667 336.333C541.722 336.278 541.778 335.222 541.333 335.667M433 336L434 337L433 336M377 337L378 338L377 337z"/>
<path style="fill:#626262; stroke:none;" d="M433 337L434 338L433 337M478 337L479 338L478 337z"/>
<path style="fill:#a4a4a4; stroke:none;" d="M540 337L541 338L540 337z"/>
<path style="fill:#626262; stroke:none;" d="M539 338L540 339L539 338M560 338L561 339L560 338z"/>
<path style="fill:#a4a4a4; stroke:none;" d="M376 339L377 340L376 339z"/>
<path style="fill:#626262; stroke:none;" d="M432 339L433 340L432 339M479 339L480 340L479 339M538 339L539 340L538 339M559 339L560 340L559 339z"/>
<path style="fill:#a4a4a4; stroke:none;" d="M479 340L480 341L479 340M558 340L559 341L558 340M375 341L376 342L375 341z"/>
<path style="fill:#626262; stroke:none;" d="M431 341L432 342L431 341M375 342L376 343L375 342z"/>
<path style="fill:#a4a4a4; stroke:none;" d="M480 342L481 345C481.401 343.234 481.289 343.443 480 342z"/>
<path style="fill:#626262; stroke:none;" d="M481 342L482 343L481 342z"/>
<path style="fill:#a4a4a4; stroke:none;" d="M374.333 343.667C374.278 343.722 374.222 344.778 374.667 344.333C374.722 344.278 374.778 343.222 374.333 343.667z"/>
<path style="fill:#626262; stroke:none;" d="M430 343L431 344L430 343z"/>
<path style="fill:#a4a4a4; stroke:none;" d="M534 344L535 345L534 344z"/>
<path style="fill:#626262; stroke:none;" d="M555 344L556 345L555 344z"/>
<path style="fill:#a4a4a4; stroke:none;" d="M373 345L374 346L373 345z"/>
<path style="fill:#626262; stroke:none;" d="M429 345L430 346L429 345z"/>
<path style="fill:#a4a4a4; stroke:none;" d="M482.333 345.667C482.278 345.722 482.222 346.778 482.667 346.333C482.722 346.278 482.778 345.222 482.333 345.667M533 345L534 346L533 345z"/>
<path style="fill:#626262; stroke:none;" d="M554 345L555 346L554 345M678 345L679 346L678 345z"/>
<path style="fill:#a4a4a4; stroke:none;" d="M429 346L430 347L429 346z"/>
<path style="fill:#626262; stroke:none;" d="M532 346L533 347L532 346z"/>
<path style="fill:#a4a4a4; stroke:none;" d="M553 346L554 347L553 346z"/>
<path style="fill:#626262; stroke:none;" d="M372 347L373 348L372 347M531 347L532 348L531 347z"/>
<path style="fill:#a4a4a4; stroke:none;" d="M552 347C551.014 348.478 551 348.203 551 350C552.289 348.557 552.401 348.766 552 347M428 348L429 349L428 348z"/>
<path style="fill:#626262; stroke:none;" d="M483 348L484 349L483 348M371 349L372 350L371 349z"/>
<path style="fill:#a4a4a4; stroke:none;" d="M427 350L428 351L427 350z"/>
<path style="fill:#626262; stroke:none;" d="M484 350L485 351L484 350z"/>
<path style="fill:#a4a4a4; stroke:none;" d="M528.333 350.667C528.278 350.722 528.222 351.778 528.667 351.333C528.722 351.278 528.778 350.222 528.333 350.667z"/>
<path style="fill:#ffffff; stroke:none;" d="M601 350L602 351L601 350z"/>
<path style="fill:#a4a4a4; stroke:none;" d="M602 350C608.678 352.802 618.784 351 626 351L679 351C672.322 348.198 662.216 350 655 350L602 350z"/>
<path style="fill:#626262; stroke:none;" d="M370 351L371 352L370 351M549 351L550 352L549 351M601 351L602 352L601 351z"/>
<path style="fill:#a4a4a4; stroke:none;" d="M426 352L427 353L426 352z"/>
<path style="fill:#626262; stroke:none;" d="M485 352L486 353L485 352z"/>
<path style="fill:#a4a4a4; stroke:none;" d="M527 352L528 353L527 352M548 352L549 353L548 352z"/>
<path style="fill:#626262; stroke:none;" d="M369 353L370 354L369 353M526 353L527 354L526 353z"/>
<path style="fill:#a4a4a4; stroke:none;" d="M547 353L548 354L547 353M601.333 353.667C601.278 353.722 601.222 354.778 601.667 354.333C601.722 354.278 601.778 353.222 601.333 353.667z"/>
<path style="fill:#626262; stroke:none;" d="M425 354L426 355L425 354M486 354L487 355L486 354M525 354L526 355L525 354z"/>
<path style="fill:#a4a4a4; stroke:none;" d="M546 354L547 355L546 354z"/>
<path style="fill:#626262; stroke:none;" d="M368 355L369 356L368 355z"/>
<path style="fill:#a4a4a4; stroke:none;" d="M368 356L369 357L368 356z"/>
<path style="fill:#626262; stroke:none;" d="M424 356L425 357L424 356M487 356L488 357L487 356z"/>
<path style="fill:#a4a4a4; stroke:none;" d="M601 356L601 512C602.769 507.785 602 502.535 602 498L602 472L602 391L602 368C602 364.017 602.552 359.699 601 356z"/>
<path style="fill:#626262; stroke:none;" d="M367 357L368 358L367 357z"/>
<path style="fill:#a4a4a4; stroke:none;" d="M487 357L488 358L487 357z"/>
<path style="fill:#626262; stroke:none;" d="M544 357L545 358L544 357M423 358L424 359L423 358M488 358L489 359L488 358z"/>
<path style="fill:#a4a4a4; stroke:none;" d="M522 358L523 359L522 358z"/>
<path style="fill:#626262; stroke:none;" d="M543 358L544 359L543 358M366 359L367 360L366 359z"/>
<path style="fill:#a4a4a4; stroke:none;" d="M488 359L489 360L488 359M521 359L522 360L521 359M542 359L543 360L542 359z"/>
<path style="fill:#626262; stroke:none;" d="M422 360L423 361L422 360M520 360L521 361L520 360z"/>
<path style="fill:#a4a4a4; stroke:none;" d="M541.333 360.667C541.278 360.722 541.222 361.778 541.667 361.333C541.722 361.278 541.778 360.222 541.333 360.667z"/>
<path style="fill:#626262; stroke:none;" d="M365 361L366 362L365 361z"/>
<path style="fill:#a4a4a4; stroke:none;" d="M489 361L490 362L489 361z"/>
<path style="fill:#626262; stroke:none;" d="M519 361L520 362L519 361M421 362L422 363L421 362M364 363L365 364L364 363z"/>
<path style="fill:#a4a4a4; stroke:none;" d="M490 363L491 364L490 363z"/>
<path style="fill:#626262; stroke:none;" d="M539 363L540 364L539 363M420 364L421 365L420 364M538 364L539 365L538 364M363 365L364 366L363 365M491 365L492 366L491 365z"/>
<path style="fill:#a4a4a4; stroke:none;" d="M537 365L538 366L537 365z"/>
<path style="fill:#626262; stroke:none;" d="M419 366L420 367L419 366z"/>
<path style="fill:#a4a4a4; stroke:none;" d="M515 366L516 367L515 366M536 366L537 367L536 366z"/>
<path style="fill:#626262; stroke:none;" d="M362 367L363 368L362 367z"/>
<path style="fill:#a4a4a4; stroke:none;" d="M419 367L420 368L419 367z"/>
<path style="fill:#626262; stroke:none;" d="M492 367L493 368L492 367z"/>
<path style="fill:#a4a4a4; stroke:none;" d="M514 367L515 368L514 367z"/>
<path style="fill:#626262; stroke:none;" d="M513 368L514 369L513 368M361 369L362 370L361 369z"/>
<path style="fill:#a4a4a4; stroke:none;" d="M418 369L419 370L418 369z"/>
<path style="fill:#626262; stroke:none;" d="M493 369L494 370L493 369M512 369L513 370L512 369z"/>
<path style="fill:#a4a4a4; stroke:none;" d="M360 370L361 371L360 370z"/>
<path style="fill:#626262; stroke:none;" d="M417 370C420.508 374.014 430.94 372 436 372L474 372C480.834 372 488.416 372.946 495 371C489.311 370.112 482.815 371 477 371L438 371C431.03 371 423.817 371.623 417 370M533 370L534 371L533 370M360 371L361 372L360 371z"/>
<path style="fill:#ffffff; stroke:none;" d="M494 371L495 372L494 371z"/>
<path style="fill:#626262; stroke:none;" d="M532 371L533 372L532 371z"/>
<path style="fill:#a4a4a4; stroke:none;" d="M359 372L360 373L359 372M531 372L532 373L531 372M509 373L510 374L509 373M530 373L531 374L530 373z"/>
<path style="fill:#626262; stroke:none;" d="M550 373L550 518C551.661 514.041 551 509.26 551 505L551 481L551 406L551 385C551 381.017 551.552 376.699 550 373z"/>
<path style="fill:#a4a4a4; stroke:none;" d="M358 374L359 375L358 374M508 374L509 375L508 374z"/>
<path style="fill:#ffffff; stroke:none;" d="M547 374L548 375L547 374z"/>
<path style="fill:#a4a4a4; stroke:none;" d="M548 374L549 375L548 374z"/>
<path style="fill:#626262; stroke:none;" d="M507 375L508 376L507 375z"/>
<path style="fill:#a4a4a4; stroke:none;" d="M529 375L530 376L529 375M547 375L548 376L547 375M357 376L358 377L357 376z"/>
<path style="fill:#626262; stroke:none;" d="M506 376L507 377L506 376z"/>
<path style="fill:#a4a4a4; stroke:none;" d="M546 376L547 377L546 376z"/>
<path style="fill:#626262; stroke:none;" d="M527 377L528 378L527 377z"/>
<path style="fill:#a4a4a4; stroke:none;" d="M545 377L546 378L545 377M356 378L357 379L356 378M526 378L527 379L526 378M544 378L545 379L544 378M525 379L526 380L525 379M543 379L544 380L543 379M355 380L356 381L355 380M503 380L504 381L503 380M524 380L525 381L524 380M542 380L543 381L542 380M502 381L503 382L502 381M541 381L542 382L541 381M354 382L355 383L354 382z"/>
<path style="fill:#626262; stroke:none;" d="M501 382L502 383L501 382z"/>
<path style="fill:#a4a4a4; stroke:none;" d="M540 382L541 383L540 382z"/>
<path style="fill:#626262; stroke:none;" d="M500 383L501 384L500 383M522 383L523 384L522 383z"/>
<path style="fill:#a4a4a4; stroke:none;" d="M539 383L540 384L539 383M353 384L354 385L353 384M521 384L522 385L521 384z"/>
<path style="fill:#626262; stroke:none;" d="M538 384L539 385L538 384M353 385L354 386L353 385z"/>
<path style="fill:#a4a4a4; stroke:none;" d="M520 385L521 386L520 385z"/>
<path style="fill:#626262; stroke:none;" d="M535 385L536 386L535 385M537 385L538 386L537 385z"/>
<path style="fill:#a4a4a4; stroke:none;" d="M352 386L353 387L352 386M519 386L520 387L519 386z"/>
<path style="fill:#626262; stroke:none;" d="M536 386L537 387L536 386z"/>
<path style="fill:#a4a4a4; stroke:none;" d="M497 387L498 388L497 387z"/>
<path style="fill:#626262; stroke:none;" d="M535 387L536 388L535 387M351 388L352 389L351 388z"/>
<path style="fill:#a4a4a4; stroke:none;" d="M496 388L497 389L496 388z"/>
<path style="fill:#626262; stroke:none;" d="M534 388L535 389L534 388M495 389L496 390L495 389M517 389L518 390L517 389M533 389L534 390L533 389M350 390L351 391L350 390M494 390L495 391L494 390M516 390L517 391L516 390M532 390L533 391L532 390z"/>
<path style="fill:#a4a4a4; stroke:none;" d="M515 391L516 392L515 391z"/>
<path style="fill:#626262; stroke:none;" d="M531 391L532 392L531 391M349 392L350 393L349 392z"/>
<path style="fill:#a4a4a4; stroke:none;" d="M514 392L513 394L515 394C515 392.147 515.3 392.65 514 392z"/>
<path style="fill:#626262; stroke:none;" d="M348 394L349 395L348 394z"/>
<path style="fill:#a4a4a4; stroke:none;" d="M491 394L492 395L491 394M490 395L491 396L490 395z"/>
<path style="fill:#626262; stroke:none;" d="M527 395L528 396L527 395M347 396L348 397L347 396M489 396L490 397L489 396M511 396L512 397L511 396M488 397L489 398L488 397z"/>
<path style="fill:#a4a4a4; stroke:none;" d="M510 397L511 398L510 397z"/>
<path style="fill:#626262; stroke:none;" d="M346 398L347 399L346 398z"/>
<path style="fill:#a4a4a4; stroke:none;" d="M509 398L510 399L509 398M346 399L347 400L346 399M508 399L509 400L508 399z"/>
<path style="fill:#626262; stroke:none;" d="M345 400L346 401L345 400z"/>
<path style="fill:#a4a4a4; stroke:none;" d="M485 401L486 402L485 401M522 401L523 402L522 401z"/>
<path style="fill:#626262; stroke:none;" d="M344 402L345 403L344 402z"/>
<path style="fill:#a4a4a4; stroke:none;" d="M484 402L485 403L484 402z"/>
<path style="fill:#626262; stroke:none;" d="M506 402L507 403L506 402z"/>
<path style="fill:#a4a4a4; stroke:none;" d="M521 402L522 403L521 402z"/>
<path style="fill:#626262; stroke:none;" d="M483 403L484 404L483 403M505 403L506 404L505 403z"/>
<path style="fill:#a4a4a4; stroke:none;" d="M520 403L521 404L520 403z"/>
<path style="fill:#626262; stroke:none;" d="M343 404L344 405L343 404M482 404L483 405L482 404z"/>
<path style="fill:#a4a4a4; stroke:none;" d="M504 404L505 405L504 404M519 404L520 405L519 404z"/>
<path style="fill:#626262; stroke:none;" d="M481 405L482 406L481 405z"/>
<path style="fill:#a4a4a4; stroke:none;" d="M503 405L504 406L503 405M518 405L519 406L518 405z"/>
<path style="fill:#626262; stroke:none;" d="M342 406L343 407L342 406z"/>
<path style="fill:#a4a4a4; stroke:none;" d="M517 406L518 407L517 406M479 407L480 408L479 407M516 407L517 408L516 407z"/>
<path style="fill:#626262; stroke:none;" d="M515 408L516 409L515 408z"/>
<path style="fill:#a4a4a4; stroke:none;" d="M340 409L341 410L340 409M478 409L479 410L478 409z"/>
<path style="fill:#626262; stroke:none;" d="M500 409L501 410L500 409M514 409L515 410L514 409M340 410L341 411L340 410z"/>
<path style="fill:#a4a4a4; stroke:none;" d="M477 410L478 411L477 410M499 410L500 411L499 410z"/>
<path style="fill:#626262; stroke:none;" d="M513 410L514 411L513 410z"/>
<path style="fill:#a4a4a4; stroke:none;" d="M339 411L340 412L339 411z"/>
<path style="fill:#626262; stroke:none;" d="M476 411L477 412L476 411z"/>
<path style="fill:#a4a4a4; stroke:none;" d="M498 411L499 412L498 411z"/>
<path style="fill:#626262; stroke:none;" d="M512 411L513 412L512 411M339 412L340 413L339 412M475 412L476 413L475 412M511 412L512 413L511 412z"/>
<path style="fill:#a4a4a4; stroke:none;" d="M338 413L339 414L338 413z"/>
<path style="fill:#626262; stroke:none;" d="M510 413L511 414L510 413M509 414L510 415L509 414z"/>
<path style="fill:#a4a4a4; stroke:none;" d="M337 415L338 416L337 415z"/>
<path style="fill:#626262; stroke:none;" d="M495 415L496 416L495 415M508 415L509 416L508 415M392 416C398.919 418.903 409.52 417 417 417L472 417C465.081 414.097 454.48 416 447 416L392 416M494 416L495 417L494 416M507 416L508 417L507 416z"/>
<path style="fill:#a4a4a4; stroke:none;" d="M336 417L337 418L336 417z"/>
<path style="fill:#626262; stroke:none;" d="M391 417L392 418L391 417z"/>
<path style="fill:#a4a4a4; stroke:none;" d="M493 417L494 418L493 417M391 418L392 419L391 418M492 418C491.014 419.479 491 419.203 491 421C492.082 419.616 492.191 419.662 492 418M335 419L336 420L335 419z"/>
<path style="fill:#ffffff; stroke:none;" d="M492 419L493 420L492 419z"/>
<path style="fill:#626262; stroke:none;" d="M335 420L336 421L335 420M388 420L389 421L388 420z"/>
<path style="fill:#a4a4a4; stroke:none;" d="M390 420L391 421L390 420M334 421L335 422L334 421z"/>
<path style="fill:#626262; stroke:none;" d="M502 421L503 422L502 421z"/>
<path style="fill:#a4a4a4; stroke:none;" d="M389 422L390 423L389 422z"/>
<path style="fill:#626262; stroke:none;" d="M489 422L490 423L489 422M501 422L502 423L501 422z"/>
<path style="fill:#a4a4a4; stroke:none;" d="M333 423L334 424L333 423M488 423L489 424L488 423M388 424L389 425L388 424M487 424L488 425L487 424M332 425L333 426L332 425z"/>
<path style="fill:#ffffff; stroke:none;" d="M498 425L499 426L498 425z"/>
<path style="fill:#a4a4a4; stroke:none;" d="M499 425L500 426L499 425M387 426L388 427L387 426M498 426L499 427L498 426z"/>
<path style="fill:#626262; stroke:none;" d="M331 427L332 428L331 427z"/>
<path style="fill:#a4a4a4; stroke:none;" d="M386.333 427.667C386.278 427.722 386.222 428.778 386.667 428.333C386.722 428.278 386.778 427.222 386.333 427.667M497 427L498 428L497 427z"/>
<path style="fill:#626262; stroke:none;" d="M484 428L485 429L484 428z"/>
<path style="fill:#a4a4a4; stroke:none;" d="M496 428L497 429L496 428M330 429L331 430L330 429z"/>
<path style="fill:#626262; stroke:none;" d="M483 429L484 430L483 429z"/>
<path style="fill:#a4a4a4; stroke:none;" d="M495 429L496 430L495 429z"/>
<path style="fill:#626262; stroke:none;" d="M385 430L386 431L385 430z"/>
<path style="fill:#a4a4a4; stroke:none;" d="M482 430L483 431L482 430M494 430L495 431L494 430z"/>
<path style="fill:#626262; stroke:none;" d="M329 431L330 432L329 431z"/>
<path style="fill:#a4a4a4; stroke:none;" d="M481 431L482 432L481 431M493 431L494 432L493 431M384 432L385 433L384 432M492 432L493 433L492 432z"/>
<path style="fill:#626262; stroke:none;" d="M328 433L329 434L328 433z"/>
<path style="fill:#a4a4a4; stroke:none;" d="M491 433L492 434L491 433z"/>
<path style="fill:#626262; stroke:none;" d="M383 434L384 435L383 434M479 434L480 435L479 434z"/>
<path style="fill:#a4a4a4; stroke:none;" d="M490 434L491 435L490 434z"/>
<path style="fill:#626262; stroke:none;" d="M327 435L328 436L327 435M478 435L479 436L478 435M489 435L490 436L489 435M382 436L383 437L382 436z"/>
<path style="fill:#a4a4a4; stroke:none;" d="M477 436L478 437L477 436z"/>
<path style="fill:#626262; stroke:none;" d="M488 436L489 437L488 436M326 437L327 438L326 437z"/>
<path style="fill:#a4a4a4; stroke:none;" d="M476 437L477 438L476 437z"/>
<path style="fill:#626262; stroke:none;" d="M487 437L488 438L487 437M381 438L382 439L381 438M486 438L487 439L486 438M325 439L326 440L325 439M485 439L486 440L485 439M380 440L381 441L380 440M484 440L485 441L484 440M324 441L325 442L324 441M473 441L474 442L473 441M379 442L380 443L379 442M472 442L473 443L472 442M482 442L483 443L482 442M323 443L324 444L323 443z"/>
<path style="fill:#a4a4a4; stroke:none;" d="M471 443L472 444L471 443z"/>
<path style="fill:#626262; stroke:none;" d="M378 444L379 445L378 444z"/>
<path style="fill:#a4a4a4; stroke:none;" d="M470.333 444.667C470.278 444.722 470.222 445.778 470.667 445.333C470.722 445.278 470.778 444.222 470.333 444.667z"/>
<path style="fill:#626262; stroke:none;" d="M322 445L323 446L322 445M377 446L378 447L377 446z"/>
<path style="fill:#a4a4a4; stroke:none;" d="M478 446L479 447L478 446z"/>
<path style="fill:#626262; stroke:none;" d="M321 447L322 448L321 447M468 447L469 448L468 447M376 448L377 449L376 448M467 448L468 449L467 448M320 449L321 450L320 449z"/>
<path style="fill:#a4a4a4; stroke:none;" d="M466 449L467 450L466 449M319 450L320 451L319 450z"/>
<path style="fill:#626262; stroke:none;" d="M375 450L376 451L375 450z"/>
<path style="fill:#a4a4a4; stroke:none;" d="M465 450L466 451L465 450z"/>
<path style="fill:#626262; stroke:none;" d="M319 451L320 452L319 451M465 451L466 452L465 451M473 451L474 452L473 451z"/>
<path style="fill:#a4a4a4; stroke:none;" d="M318 452L319 453L318 452z"/>
<path style="fill:#626262; stroke:none;" d="M374 452L375 453L374 452z"/>
<path style="fill:#a4a4a4; stroke:none;" d="M472 453L473 454L472 453M317 454L318 455L317 454z"/>
<path style="fill:#626262; stroke:none;" d="M373 454L374 455L373 454M462 454L463 455L462 454z"/>
<path style="fill:#a4a4a4; stroke:none;" d="M471 454L472 455L471 454z"/>
<path style="fill:#626262; stroke:none;" d="M461 455L462 456L461 455z"/>
<path style="fill:#a4a4a4; stroke:none;" d="M470 455L471 456L470 455M316.333 456.667C316.278 456.722 316.222 457.778 316.667 457.333C316.722 457.278 316.778 456.222 316.333 456.667M460 456L461 457L460 456M469 456L470 457L469 456M459 457L460 458L459 457M468 457L469 458L468 457M315 458L316 459L315 458M467 458L468 459L467 458M466 459L467 460L466 459z"/>
<path style="fill:#626262; stroke:none;" d="M457 460L458 461L457 460z"/>
<path style="fill:#a4a4a4; stroke:none;" d="M465 460L466 461L465 460z"/>
<path style="fill:#626262; stroke:none;" d="M456 461L457 462L456 461M464 461L465 462L464 461z"/>
<path style="fill:#a4a4a4; stroke:none;" d="M455 462L456 463L455 462z"/>
<path style="fill:#626262; stroke:none;" d="M463 462L464 463L463 462z"/>
<path style="fill:#a4a4a4; stroke:none;" d="M454 463L455 464L454 463z"/>
<path style="fill:#626262; stroke:none;" d="M462 463L463 464L462 463M461 464L462 465L461 464M460 465L461 466L460 465M459 466L460 467L459 466M451 467L452 468L451 467M450 468L451 469L450 468M457 468L458 469L457 468z"/>
<path style="fill:#a4a4a4; stroke:none;" d="M449 469L450 470L449 469z"/>
<path style="fill:#626262; stroke:none;" d="M456 469L457 470L456 469M446 473L447 474L446 473M445 474L446 475L445 474z"/>
<path style="fill:#a4a4a4; stroke:none;" d="M444 475L445 476L444 475M443 476L444 477L443 476z"/>
<path style="fill:#ffffff; stroke:none;" d="M447 478L448 479L447 478z"/>
<path style="fill:#a4a4a4; stroke:none;" d="M448 478L449 479L448 478M447 479L448 480L447 479z"/>
<path style="fill:#626262; stroke:none;" d="M440 480L441 481L440 480z"/>
<path style="fill:#a4a4a4; stroke:none;" d="M446 480L447 481L446 480M439 481L440 482L439 481M445 481L446 482L445 481M438 482L437 484L439 484C439 482.147 439.3 482.65 438 482M444 482L445 483L444 482M443 483L444 484L443 483M442 484L443 485L442 484M441 485L442 486L441 485z"/>
<path style="fill:#626262; stroke:none;" d="M435 486L436 487L435 486M440 486L441 487L440 486z"/>
<path style="fill:#a4a4a4; stroke:none;" d="M434 487L435 488L434 487z"/>
<path style="fill:#626262; stroke:none;" d="M439 487L440 488L439 487z"/>
<path style="fill:#a4a4a4; stroke:none;" d="M433 488L434 489L433 488z"/>
<path style="fill:#626262; stroke:none;" d="M438 488L439 489L438 488M437 489L438 490L437 489M436 490L437 491L436 490M435 491L436 492L435 491M434 492L435 493L434 492M429 493L430 494L429 493z"/>
<path style="fill:#a4a4a4; stroke:none;" d="M431 493L432 494L431 493z"/>
<path style="fill:#626262; stroke:none;" d="M433 493L434 494L433 493z"/>
<path style="fill:#a4a4a4; stroke:none;" d="M428 494L429 495L428 494z"/>
<path style="fill:#ffffff; stroke:none;" d="M430 494L431 495L430 494z"/>
<path style="fill:#a4a4a4; stroke:none;" d="M427 495L428 496L427 495M426.333 496.667C426.278 496.722 426.222 497.778 426.667 497.333C426.722 497.278 426.778 496.222 426.333 496.667z"/>
<path style="fill:#626262; stroke:none;" d="M424 499L425 500L424 499z"/>
<path style="fill:#a4a4a4; stroke:none;" d="M423 500L424 501L423 500M422 501L423 502L422 501M421 502L422 503L421 502M423 503L421 507C422.752 505.67 423.67 504.753 425 503L423 503z"/>
<path style="fill:#626262; stroke:none;" d="M422 504L423 505L422 504M419 505L420 506L419 505M418 506L419 507L418 506z"/>
<path style="fill:#a4a4a4; stroke:none;" d="M417 507L418 508L417 507M420 507L421 508L420 507M416 508L417 509L416 508M419 508L420 509L419 508M418 509L419 510L418 509M417 510L418 511L417 510z"/>
<path style="fill:#626262; stroke:none;" d="M414 511L415 512L414 511z"/>
<path style="fill:#a4a4a4; stroke:none;" d="M416 511L417 512L416 511z"/>
<path style="fill:#626262; stroke:none;" d="M413 512L414 513L413 512z"/>
<path style="fill:#a4a4a4; stroke:none;" d="M415 512L416 513L415 512z"/>
<path style="fill:#626262; stroke:none;" d="M412 513L413 514L412 513z"/>
<path style="fill:#a4a4a4; stroke:none;" d="M414 513L415 514L414 513M411 514L412 515L411 514z"/>
<path style="fill:#626262; stroke:none;" d="M413 514L414 515L413 514z"/>
<path style="fill:#a4a4a4; stroke:none;" d="M410 515L411 516L410 515z"/>
<path style="fill:#626262; stroke:none;" d="M412 515L413 516L412 515M410 516L410 518C411.635 517.455 411.455 517.635 412 516L410 516z"/>
<path style="fill:#a4a4a4; stroke:none;" d="M409 517L410 518L409 517z"/>
<path style="fill:#626262; stroke:none;" d="M600 517L601 518L600 517z"/>
<path style="fill:#020202; stroke:none;" d="M408 518L404 524C406.507 522.205 408.205 520.508 410 518L408 518z"/>
<path style="fill:#626262; stroke:none;" d="M407 519L408 520L407 519M406 520L407 521L406 520z"/>
<path style="fill:#a4a4a4; stroke:none;" d="M405 521L406 522L405 521M404 522L405 523L404 522z"/>
<path style="fill:#626262; stroke:none;" d="M403 524L402 526C403.263 525.029 403.392 525.306 403 524z"/>
<path style="fill:#a4a4a4; stroke:none;" d="M403 525L404 526L403 525M401.667 526.333C401.222 526.778 402.278 526.722 402.333 526.667C402.778 526.222 401.722 526.278 401.667 526.333M484 560C484.545 561.635 484.365 561.455 486 562C485.455 560.365 485.635 560.545 484 560M327 561L328 562L327 561z"/>
<path style="fill:#626262; stroke:none;" d="M328 561L329 562L328 561z"/>
<path style="fill:#020202; stroke:none;" d="M340 584C337.441 585.287 334.977 586.612 332.09 586.968C316.041 588.945 317.316 562.543 332.984 564.267C335.308 564.523 337.107 565.751 339 567L340 564C337.194 562.529 334.279 561.074 331 561.306C328.55 561.48 326.144 562.595 324.04 563.8C315.241 568.838 314.91 582.583 324.043 587.721C329.67 590.887 337.908 590.967 340 584z"/>
<path style="fill:#a4a4a4; stroke:none;" d="M334.667 561.333C334.222 561.778 335.278 561.722 335.333 561.667C335.778 561.222 334.722 561.278 334.667 561.333M375 561C377.052 561.874 378.747 561.953 381 562C378.948 561.126 377.253 561.047 375 561M425 561C429.471 562.876 435.183 562 440 562C435.529 560.124 429.817 561 425 561z"/>
<path style="fill:#626262; stroke:none;" d="M484 561C484.545 562.635 484.365 562.455 486 563C485.455 561.365 485.635 561.545 484 561z"/>
<path style="fill:#a4a4a4; stroke:none;" d="M525 565C525.685 563.752 525.749 563.452 526 562L543 562C538.121 559.953 526.943 559.146 525 565M576 561C577.248 561.685 577.549 561.749 579 562C577.752 561.315 577.452 561.251 576 561M612 563C613.85 562.798 615.15 562.798 617 563C614.908 561.426 613.815 560.982 612 563M631 562C632.51 562.25 633.435 562.18 635 562C633.191 561.426 632.931 561.535 631 562M668 590C671.21 582.351 669 570.288 669 562L683 562C679.877 560.69 671.478 559.51 669.028 562.603C667.376 564.689 668.001 568.531 668 571L668 590z"/>
<path style="fill:#626262; stroke:none;" d="M325 562L326 563L325 562z"/>
<path style="fill:#a4a4a4; stroke:none;" d="M337 562L338 563L337 562z"/>
<path style="fill:#020202; stroke:none;" d="M375 562L375 589L378 589L378 577C382.261 580.905 384.225 587.224 390 589L382 576C387.498 575.141 391.759 569.258 386.682 564.514C383.611 561.644 378.882 562.011 375 562z"/>
<path style="fill:#626262; stroke:none;" d="M384 562L385 563L384 562z"/>
<path style="fill:#a4a4a4; stroke:none;" d="M385 562L386 563L385 562z"/>
<path style="fill:#626262; stroke:none;" d="M425 562L425 581C425.005 583.42 424.435 587.255 426.603 588.972C429.55 591.306 436.435 590 440 590C435.784 588.231 430.541 589 426 589C426 580.975 428.109 569.409 425 562z"/>
<path style="fill:#020202; stroke:none;" d="M426 562L426 589L440 589L440 587L428 587L428 575C431.657 576.081 435.199 576 439 576L439 573L428 573L428 564L440 564L440 562L426 562z"/>
<path style="fill:#a4a4a4; stroke:none;" d="M483 562L484 563L483 562z"/>
<path style="fill:#020202; stroke:none;" d="M484 562L472 589C476.004 587.715 477.135 584.97 478 581C481.41 581 485.8 580.319 488.895 582.028C491.892 583.682 493.156 587.145 496 589C493.983 580.308 489.85 568.801 484 562M526 562L526 564C536.704 564.817 533 581.077 533 589L535 589C535 581.077 531.296 564.817 542 564L542 562L526 562z"/>
<path style="fill:#626262; stroke:none;" d="M542 562C539.943 563.582 538.612 563.826 536 564C538.326 565.11 542.57 565.461 542 562z"/>
<path style="fill:#020202; stroke:none;" d="M576 562C577.949 570.185 577.949 580.815 576 589C579.72 588.203 579 585.39 579 582L579 562L576 562M613 562L623 589C629.181 583.139 632.258 570.056 635 562C628.752 564.052 625.753 576.959 625 583C620.101 577.551 618.533 568.792 616 562L613 562M669 562L669 589L683 589L683 587L671 587L671 576L683 576L683 573L671 573L671 564L683 564L683 562L669 562z"/>
<path style="fill:#626262; stroke:none;" d="M323.667 563.333C323.222 563.778 324.278 563.722 324.333 563.667C324.778 563.222 323.722 563.278 323.667 563.333z"/>
<path style="fill:#a4a4a4; stroke:none;" d="M339 563L340 564L339 563z"/>
<path style="fill:#626262; stroke:none;" d="M386 563L387 564L386 563z"/>
<path style="fill:#a4a4a4; stroke:none;" d="M485 563L486 564L485 563z"/>
<path style="fill:#626262; stroke:none;" d="M616 563L617 564L616 563M634 563L635 564L634 563M322 564L323 565L322 564M328 564L329 565L328 564M334 564L335 565L334 564M378 564C379.769 564.779 381.036 564.912 383 565C381.231 564.221 379.964 564.088 378 564M387 564L388 565L387 564z"/>
<path style="fill:#a4a4a4; stroke:none;" d="M428 564L429 565L428 564z"/>
<path style="fill:#626262; stroke:none;" d="M429 564C432.432 565.44 436.3 565 440 565C436.568 563.56 432.7 564 429 564M486 564L487 565L486 564M526 564C528.052 564.874 529.747 564.953 532 565C529.948 564.126 528.253 564.047 526 564z"/>
<path style="fill:#a4a4a4; stroke:none;" d="M542 564L543 565L542 564M613 564L614 565L613 564z"/>
<path style="fill:#ffffff; stroke:none;" d="M671 564L672 565L671 564z"/>
<path style="fill:#626262; stroke:none;" d="M672 564C675.432 565.44 679.3 565 683 565C679.568 563.56 675.7 564 672 564z"/>
<path style="fill:#a4a4a4; stroke:none;" d="M326 565L327 566L326 565z"/>
<path style="fill:#626262; stroke:none;" d="M336 565L337 566L336 565M339 565L340 566L339 565z"/>
<path style="fill:#ffffff; stroke:none;" d="M378 565L378 574L384 575C387.471 568.516 385.44 565.241 378 565z"/>
<path style="fill:#626262; stroke:none;" d="M384 565L385 566L384 565z"/>
<path style="fill:#a4a4a4; stroke:none;" d="M388 565L389 566L388 565z"/>
<path style="fill:#626262; stroke:none;" d="M428 565L428 573C429.161 570.23 429.161 567.77 428 565M482 565L483 566L482 565M532 565L532 590C539.065 587.655 536 571.301 536 565C533.194 571.687 535 581.767 535 589L533 589C533 581.767 534.806 571.687 532 565z"/>
<path style="fill:#a4a4a4; stroke:none;" d="M617 565L618 566L617 565z"/>
<path style="fill:#626262; stroke:none;" d="M630 565L631 566L630 565M671 565L671 573C672.161 570.23 672.161 567.77 671 565M324 566L325 567L324 566z"/>
<path style="fill:#a4a4a4; stroke:none;" d="M339.333 566.667C339.278 566.722 339.222 567.778 339.667 567.333C339.722 567.278 339.778 566.222 339.333 566.667M487 566L488 567L487 566z"/>
<path style="fill:#626262; stroke:none;" d="M614 566L615 567L614 566z"/>
<path style="fill:#a4a4a4; stroke:none;" d="M633 566L634 567L633 566z"/>
<path style="fill:#626262; stroke:none;" d="M319 567L320 568L319 567z"/>
<path style="fill:#a4a4a4; stroke:none;" d="M323 567L324 568L323 567z"/>
<path style="fill:#626262; stroke:none;" d="M481 567L482 568L481 567z"/>
<path style="fill:#a4a4a4; stroke:none;" d="M614 567L615 568L614 567M629 567L630 568L629 567M318 568L319 569L318 568z"/>
<path style="fill:#626262; stroke:none;" d="M322 568L323 569L322 568z"/>
<path style="fill:#a4a4a4; stroke:none;" d="M389 568L389 571C389.696 569.446 389.696 569.554 389 568M484 568L485 569L484 568z"/>
<path style="fill:#ffffff; stroke:none;" d="M485 568C484.001 569.493 484.032 569.266 484 571L482 571C482.004 573.947 481.055 576.26 480 579L490 579C488.989 576.915 488.216 575.289 488 573C486.589 571.411 485.969 569.858 485 568z"/>
<path style="fill:#626262; stroke:none;" d="M618 568L619 569L618 568M629 568L630 569L629 568M632 568L633 569L632 568z"/>
<path style="fill:#a4a4a4; stroke:none;" d="M480 569L481 570L480 569z"/>
<path style="fill:#626262; stroke:none;" d="M485 569L486 570L485 569M488 569L489 570L488 569M615 569L616 570L615 569z"/>
<path style="fill:#a4a4a4; stroke:none;" d="M632 569L633 570L632 569M321 570L322 571L321 570z"/>
<path style="fill:#626262; stroke:none;" d="M483 570L484 571L483 570z"/>
<path style="fill:#a4a4a4; stroke:none;" d="M619 570L620 571L619 570M628 570L629 571L628 570z"/>
<path style="fill:#626262; stroke:none;" d="M317 571L318 572L317 571z"/>
<path style="fill:#a4a4a4; stroke:none;" d="M479 571L480 572L479 571z"/>
<path style="fill:#626262; stroke:none;" d="M489 571L490 572L489 571M619.333 571.667C619.278 571.722 619.222 572.778 619.667 572.333C619.722 572.278 619.778 571.222 619.333 571.667M631 571L632 572L631 571z"/>
<path style="fill:#a4a4a4; stroke:none;" d="M320 572L321 573L320 572z"/>
<path style="fill:#626262; stroke:none;" d="M385 572L386 573L385 572M479 572L480 573L479 572M482 572L483 573L482 572z"/>
<path style="fill:#a4a4a4; stroke:none;" d="M486 572L487 573L486 572M616 572L617 573L616 572z"/>
<path style="fill:#626262; stroke:none;" d="M384 573L385 574L384 573z"/>
<path style="fill:#a4a4a4; stroke:none;" d="M386 573L387 574L386 573M388 573L389 574L388 573z"/>
<path style="fill:#626262; stroke:none;" d="M439 573L439 576C439.696 574.446 439.696 574.554 439 573z"/>
<path style="fill:#a4a4a4; stroke:none;" d="M490 573L491 574L490 573M620 573L621 574L620 573z"/>
<path style="fill:#626262; stroke:none;" d="M627 573L628 574L627 573M630 573L631 574L630 573z"/>
<path style="fill:#a4a4a4; stroke:none;" d="M378 574C379.506 574.683 380.315 574.826 382 575C380.494 574.317 379.685 574.174 378 574z"/>
<path style="fill:#626262; stroke:none;" d="M382 574L383 575L382 574M387 574L388 575L387 574M478 574L479 575L478 574M481 574L482 575L481 574M487 574L488 575L487 574M617 574L618 575L617 574z"/>
<path style="fill:#a4a4a4; stroke:none;" d="M630 574L631 575L630 574M682 574L683 575L682 574z"/>
<path style="fill:#626262; stroke:none;" d="M386 575L387 576L386 575z"/>
<path style="fill:#ffffff; stroke:none;" d="M428 575L429 576L428 575z"/>
<path style="fill:#a4a4a4; stroke:none;" d="M481 575L482 576L481 575M626 575L627 576L626 575z"/>
<path style="fill:#626262; stroke:none;" d="M384 576L385 577L384 576z"/>
<path style="fill:#a4a4a4; stroke:none;" d="M385 576L386 577L385 576z"/>
<path style="fill:#626262; stroke:none;" d="M428 576L428 587C429.431 583.59 429.431 579.41 428 576z"/>
<path style="fill:#a4a4a4; stroke:none;" d="M477 576L478 577L477 576M480.333 576.667C480.278 576.722 480.222 577.778 480.667 577.333C480.722 577.278 480.778 576.222 480.333 576.667z"/>
<path style="fill:#626262; stroke:none;" d="M488 576L489 577L488 576M491 576L492 577L491 576M621 576L622 577L621 576M626 576L627 577L626 576M629 576L630 577L629 576M671 576L671 587C672.431 583.59 672.431 579.41 671 576z"/>
<path style="fill:#a4a4a4; stroke:none;" d="M378 577C378.545 578.635 378.365 578.455 380 579C379.455 577.365 379.635 577.545 378 577z"/>
<path style="fill:#ffffff; stroke:none;" d="M379 577L380 578L379 577z"/>
<path style="fill:#626262; stroke:none;" d="M382 577L383 578L382 577z"/>
<path style="fill:#a4a4a4; stroke:none;" d="M618 577L619 578L618 577M629 577L630 578L629 577M320 578L321 579L320 578M383 578L384 579L383 578M476 578L477 579L476 578z"/>
<path style="fill:#626262; stroke:none;" d="M479 578L480 579L479 578M492 578L493 579L492 578z"/>
<path style="fill:#a4a4a4; stroke:none;" d="M619 578L620 579L619 578M622 578L623 579L622 578M625 578L626 579L625 578z"/>
<path style="fill:#626262; stroke:none;" d="M317 579L318 580L317 579M320 579L321 580L320 579M380 579L381 580L380 579M619 579L620 580L619 579M622 579L623 580L622 579z"/>
<path style="fill:#a4a4a4; stroke:none;" d="M628 579L629 580L628 579M317 580L318 581L317 580M377 580L378 581L377 580M381.333 580.667C381.278 580.722 381.222 581.778 381.667 581.333C381.722 581.278 381.778 580.222 381.333 580.667z"/>
<path style="fill:#626262; stroke:none;" d="M384 580L385 581L384 580z"/>
<path style="fill:#a4a4a4; stroke:none;" d="M493 580L494 581L493 580z"/>
<path style="fill:#626262; stroke:none;" d="M321 581L322 582L321 581z"/>
<path style="fill:#a4a4a4; stroke:none;" d="M385 581L386 582L385 581z"/>
<path style="fill:#626262; stroke:none;" d="M475 581L476 582L475 581z"/>
<path style="fill:#ffffff; stroke:none;" d="M478 581L479 582L478 581z"/>
<path style="fill:#626262; stroke:none;" d="M479 581C482.432 582.44 486.3 582 490 582C486.568 580.56 482.7 581 479 581M620.333 581.667C620.278 581.722 620.222 582.778 620.667 582.333C620.722 582.278 620.778 581.222 620.333 581.667z"/>
<path style="fill:#a4a4a4; stroke:none;" d="M623 581C623.545 582.635 623.365 582.455 625 583L625 581L623 581z"/>
<path style="fill:#626262; stroke:none;" d="M627 581L628 582L627 581M318 582L319 583L318 582M382 582L383 583L382 582z"/>
<path style="fill:#a4a4a4; stroke:none;" d="M478 582L479 583L478 582z"/>
<path style="fill:#626262; stroke:none;" d="M623 582L624 583L623 582z"/>
<path style="fill:#a4a4a4; stroke:none;" d="M627 582L628 583L627 582z"/>
<path style="fill:#626262; stroke:none;" d="M474 583L475 584L474 583M491 583L492 584L491 583M494 583L495 584L494 583z"/>
<path style="fill:#a4a4a4; stroke:none;" d="M338 584L339 585L338 584M383 584L384 585L383 584z"/>
<path style="fill:#626262; stroke:none;" d="M387 584L388 585L387 584z"/>
<path style="fill:#a4a4a4; stroke:none;" d="M477 584L478 585L477 584M491 584L492 585L491 584z"/>
<path style="fill:#626262; stroke:none;" d="M626 584L627 585L626 584z"/>
<path style="fill:#a4a4a4; stroke:none;" d="M320 585L321 586L320 585z"/>
<path style="fill:#626262; stroke:none;" d="M325 585L326 586L325 585M337 585L338 586L337 585M384 585L385 586L384 585z"/>
<path style="fill:#a4a4a4; stroke:none;" d="M388 585L389 586L388 585M473 585L474 586L473 585z"/>
<path style="fill:#626262; stroke:none;" d="M476.333 585.667C476.278 585.722 476.222 586.778 476.667 586.333C476.722 586.278 476.778 585.222 476.333 585.667M495 585L496 586L495 585z"/>
<path style="fill:#a4a4a4; stroke:none;" d="M621 585L622 586L621 585M321 586L322 587L321 586z"/>
<path style="fill:#626262; stroke:none;" d="M327 586L328 587L327 586z"/>
<path style="fill:#a4a4a4; stroke:none;" d="M328 586L329 587L328 586M334 586L335 587L334 586z"/>
<path style="fill:#626262; stroke:none;" d="M335 586L336 587L335 586z"/>
<path style="fill:#a4a4a4; stroke:none;" d="M429 586C432.432 587.44 436.3 587 440 587C436.568 585.56 432.7 586 429 586z"/>
<path style="fill:#626262; stroke:none;" d="M492 586L493 587L492 586z"/>
<path style="fill:#a4a4a4; stroke:none;" d="M672 586C675.432 587.44 679.3 587 683 587C679.568 585.56 675.7 586 672 586z"/>
<path style="fill:#626262; stroke:none;" d="M339 587L340 588L339 587z"/>
<path style="fill:#a4a4a4; stroke:none;" d="M385 587L386 588L385 587z"/>
<path style="fill:#626262; stroke:none;" d="M389 587L390 588L389 587z"/>
<path style="fill:#a4a4a4; stroke:none;" d="M472 587L473 588L472 587M493 587L494 588L493 587M496.333 587.667C496.278 587.722 496.222 588.778 496.667 588.333C496.722 588.278 496.778 587.222 496.333 587.667z"/>
<path style="fill:#626262; stroke:none;" d="M622 587L623 588L622 587z"/>
<path style="fill:#a4a4a4; stroke:none;" d="M625 587L626 588L625 587M324 588L325 589L324 588M338 588L339 589L338 588M386 588L387 589L386 588M390 588L391 589L390 588z"/>
<path style="fill:#626262; stroke:none;" d="M475 588C473.521 588.986 473.797 589 472 589C473.809 589.574 474.069 589.465 476 589L475 588M493 588C494.543 589.267 495.048 589.489 497 590C495.623 589.089 494.56 588.596 493 588z"/>
<path style="fill:#a4a4a4; stroke:none;" d="M622 588L623 589L622 588M326 589L327 590L326 589z"/>
<path style="fill:#626262; stroke:none;" d="M327 589L328 590L327 589z"/>
<path style="fill:#a4a4a4; stroke:none;" d="M328 589L329 590L328 589M333 589L334 590L333 589z"/>
<path style="fill:#626262; stroke:none;" d="M335 589L336 590L335 589M375 589C376.248 589.685 376.548 589.749 378 590C376.752 589.315 376.452 589.251 375 589M387 589C388.506 589.683 389.315 589.826 391 590C389.494 589.317 388.685 589.174 387 589z"/>
<path style="fill:#a4a4a4; stroke:none;" d="M425 589L426 590L425 589M475 589L476 590L475 589M493 589L494 590L493 589M535 589L536 590L535 589z"/>
<path style="fill:#626262; stroke:none;" d="M576 589C577.248 589.685 577.549 589.749 579 590C577.752 589.315 577.452 589.251 576 589M624 589L623 591C624.263 590.029 624.392 590.306 624 589M669 589C673.217 590.769 678.459 590 683 590C678.784 588.231 673.541 589 669 589z"/>
<path style="fill:#a4a4a4; stroke:none;" d="M624 590L625 591L624 590z"/>
</svg>
